<svg width="155" height="52" viewBox="0 0 155 52" fill="none" xmlns="http://www.w3.org/2000/svg">
<rect width="155" height="52" rx="8" fill="#EA0C0C"/>
<path fill-rule="evenodd" clip-rule="evenodd" d="M36.75 25.25V19.25H35.25V25.25H29.25V26.75H35.25V32.75H36.75V26.75H42.75V25.25H36.75Z" fill="#F2F2F2"/>
<mask id="mask0_14850_16461" style="mask-type:luminance" maskUnits="userSpaceOnUse" x="29" y="19" width="14" height="14">
<path fill-rule="evenodd" clip-rule="evenodd" d="M36.75 25.25V19.25H35.25V25.25H29.25V26.75H35.25V32.75H36.75V26.75H42.75V25.25H36.75Z" fill="white"/>
</mask>
<g mask="url(#mask0_14850_16461)">
</g>
<path d="M58.77 32.96C58.6673 32.96 58.5833 32.9227 58.518 32.848C58.4527 32.7827 58.42 32.6987 58.42 32.596V29.026C58.42 28.9233 58.4527 28.8393 58.518 28.774C58.5833 28.6993 58.6673 28.662 58.77 28.662H59.022C59.4513 28.662 59.75 28.2887 59.918 27.542C60.0953 26.786 60.184 25.7313 60.184 24.378V21.55C60.184 21.4473 60.2167 21.3633 60.282 21.298C60.3567 21.2327 60.4453 21.2 60.548 21.2H67.226C67.3287 21.2 67.4127 21.2373 67.478 21.312C67.5527 21.3773 67.59 21.4613 67.59 21.564V28.662H68.234C68.3367 28.662 68.4207 28.6993 68.486 28.774C68.5607 28.8393 68.598 28.9233 68.598 29.026V32.596C68.598 32.6987 68.5607 32.7827 68.486 32.848C68.4207 32.9227 68.3367 32.96 68.234 32.96H66.33C66.2273 32.96 66.1387 32.9227 66.064 32.848C65.9987 32.7827 65.966 32.6987 65.966 32.596V31H61.052V32.596C61.052 32.6987 61.0147 32.7827 60.94 32.848C60.8747 32.9227 60.7907 32.96 60.688 32.96H58.77ZM64.958 28.662V23.538H62.718V24.714C62.718 26.562 62.5173 27.878 62.116 28.662H64.958ZM73.3449 31.14C72.1689 31.14 71.2635 30.8693 70.6289 30.328C70.0035 29.7773 69.6629 28.998 69.6069 27.99C69.5975 27.8687 69.5929 27.6587 69.5929 27.36C69.5929 27.0613 69.5975 26.8513 69.6069 26.73C69.6629 25.7407 70.0129 24.9707 70.6569 24.42C71.3102 23.86 72.2062 23.58 73.3449 23.58C74.4835 23.58 75.3749 23.86 76.0189 24.42C76.6722 24.9707 77.0269 25.7407 77.0829 26.73C77.1015 26.9727 77.1109 27.1827 77.1109 27.36C77.1109 27.5373 77.1015 27.7473 77.0829 27.99C77.0269 28.998 76.6815 29.7773 76.0469 30.328C75.4215 30.8693 74.5209 31.14 73.3449 31.14ZM73.3449 29.376C73.7275 29.376 74.0122 29.2593 74.1989 29.026C74.3855 28.7833 74.4929 28.4147 74.5209 27.92C74.5302 27.8267 74.5349 27.64 74.5349 27.36C74.5349 27.08 74.5302 26.8933 74.5209 26.8C74.4929 26.3147 74.3855 25.9507 74.1989 25.708C74.0122 25.4653 73.7275 25.344 73.3449 25.344C72.9622 25.344 72.6775 25.4653 72.4909 25.708C72.3042 25.9507 72.1969 26.3147 72.1689 26.8L72.1549 27.36L72.1689 27.92C72.1969 28.4147 72.3042 28.7833 72.4909 29.026C72.6775 29.2593 72.9622 29.376 73.3449 29.376ZM85.7245 27.192C85.7432 27.416 85.7525 27.5933 85.7525 27.724C85.7525 27.8453 85.7432 28.0087 85.7245 28.214C85.6685 29.1473 85.3232 29.8707 84.6885 30.384C84.0632 30.888 83.1625 31.14 81.9865 31.14C80.7172 31.14 79.7885 30.8367 79.2005 30.23C78.6218 29.6233 78.2998 28.6573 78.2345 27.332L78.2205 26.478L78.2345 25.638C78.2812 24.3593 78.5005 23.3933 78.8925 22.74C79.2938 22.0867 79.8865 21.5967 80.6705 21.27C81.4638 20.9433 82.7005 20.5933 84.3805 20.22C84.4738 20.2013 84.5625 20.22 84.6465 20.276C84.7305 20.3227 84.7772 20.3973 84.7865 20.5L85.0385 21.858C85.0572 21.9607 85.0432 22.054 84.9965 22.138C84.9498 22.2127 84.8798 22.2593 84.7865 22.278C83.5638 22.5113 82.6958 22.7073 82.1825 22.866C81.6785 23.0247 81.3005 23.258 81.0485 23.566C80.8058 23.8647 80.6612 24.3313 80.6145 24.966C80.8292 24.7607 81.0998 24.5927 81.4265 24.462C81.7532 24.3313 82.0938 24.266 82.4485 24.266C83.4658 24.266 84.2498 24.5227 84.8005 25.036C85.3605 25.5493 85.6685 26.268 85.7245 27.192ZM83.1625 28.158C83.1718 28.0833 83.1765 27.9387 83.1765 27.724C83.1765 27.4907 83.1718 27.332 83.1625 27.248C83.1158 26.3333 82.7518 25.876 82.0705 25.876C81.2772 25.876 80.8572 26.3333 80.8105 27.248L80.7965 27.724L80.8105 28.158C80.8292 28.6247 80.9318 28.9747 81.1185 29.208C81.3145 29.432 81.6038 29.544 81.9865 29.544C82.3692 29.544 82.6538 29.432 82.8405 29.208C83.0365 28.9747 83.1438 28.6247 83.1625 28.158ZM89.2831 31.14C88.7884 31.14 88.3358 31.0467 87.9251 30.86C87.5238 30.664 87.2064 30.398 86.9731 30.062C86.7491 29.726 86.6371 29.3573 86.6371 28.956C86.6371 28.3213 86.8984 27.808 87.4211 27.416C87.9531 27.0147 88.6811 26.7393 89.6051 26.59L91.3411 26.324V26.156C91.3411 25.8107 91.2711 25.5587 91.1311 25.4C90.9911 25.2413 90.7531 25.162 90.4171 25.162C90.2304 25.162 90.0718 25.1947 89.9411 25.26C89.8198 25.3253 89.6798 25.4233 89.5211 25.554C89.3998 25.6567 89.2924 25.7313 89.1991 25.778C89.1618 25.8433 89.1151 25.876 89.0591 25.876H87.4351C87.3418 25.876 87.2624 25.848 87.1971 25.792C87.1411 25.7267 87.1178 25.652 87.1271 25.568C87.1364 25.316 87.2624 25.036 87.5051 24.728C87.7478 24.4107 88.1164 24.14 88.6111 23.916C89.1058 23.692 89.7171 23.58 90.4451 23.58C91.6024 23.58 92.4611 23.8367 93.0211 24.35C93.5811 24.854 93.8611 25.54 93.8611 26.408V30.65C93.8611 30.7433 93.8284 30.8273 93.7631 30.902C93.6978 30.9673 93.6138 31 93.5111 31H91.7891C91.6958 31 91.6118 30.9673 91.5371 30.902C91.4718 30.8273 91.4391 30.7433 91.4391 30.65V30.16C91.2338 30.4493 90.9491 30.6873 90.5851 30.874C90.2211 31.0513 89.7871 31.14 89.2831 31.14ZM89.9831 29.488C90.3938 29.488 90.7251 29.3527 90.9771 29.082C91.2384 28.8113 91.3691 28.4193 91.3691 27.906V27.738L90.2071 27.934C89.4231 28.0833 89.0311 28.3633 89.0311 28.774C89.0311 28.9887 89.1198 29.1613 89.2971 29.292C89.4838 29.4227 89.7124 29.488 89.9831 29.488ZM95.7339 31C95.6406 31 95.5566 30.9673 95.4819 30.902C95.4166 30.8273 95.3839 30.7433 95.3839 30.65V24.07C95.3839 23.9673 95.4166 23.8833 95.4819 23.818C95.5566 23.7527 95.6406 23.72 95.7339 23.72H99.0519C100.144 23.72 100.956 23.902 101.488 24.266C102.029 24.63 102.3 25.1433 102.3 25.806C102.3 26.1327 102.235 26.4127 102.104 26.646C101.973 26.87 101.787 27.066 101.544 27.234C101.852 27.3927 102.09 27.612 102.258 27.892C102.435 28.1627 102.524 28.48 102.524 28.844C102.524 29.5253 102.253 30.0573 101.712 30.44C101.171 30.8133 100.354 31 99.2619 31H95.7339ZM99.1079 26.548C99.7053 26.548 100.004 26.324 100.004 25.876C100.004 25.652 99.9246 25.498 99.7659 25.414C99.6166 25.3207 99.3973 25.274 99.1079 25.274H97.7639V26.548H99.1079ZM99.1359 29.446C99.7426 29.446 100.046 29.236 100.046 28.816C100.046 28.5827 99.9713 28.4147 99.8219 28.312C99.6726 28.2093 99.4439 28.158 99.1359 28.158H97.7639V29.446H99.1359ZM104.279 31C104.186 31 104.102 30.9673 104.027 30.902C103.962 30.8273 103.929 30.7433 103.929 30.65V24.07C103.929 23.9673 103.962 23.8833 104.027 23.818C104.102 23.7527 104.186 23.72 104.279 23.72H106.043C106.146 23.72 106.23 23.7527 106.295 23.818C106.36 23.8833 106.393 23.9673 106.393 24.07V25.946H107.653C108.586 25.946 109.314 26.1747 109.837 26.632C110.369 27.08 110.635 27.7007 110.635 28.494C110.635 29.306 110.364 29.9267 109.823 30.356C109.291 30.7853 108.544 31 107.583 31H104.279ZM111.825 31C111.732 31 111.648 30.9673 111.573 30.902C111.508 30.8273 111.475 30.7433 111.475 30.65V24.07C111.475 23.9673 111.508 23.8833 111.573 23.818C111.648 23.7527 111.732 23.72 111.825 23.72H113.575C113.678 23.72 113.762 23.7527 113.827 23.818C113.902 23.8833 113.939 23.9673 113.939 24.07V30.65C113.939 30.7527 113.902 30.8367 113.827 30.902C113.762 30.9673 113.678 31 113.575 31H111.825ZM107.443 29.334C107.788 29.334 108.04 29.2687 108.199 29.138C108.358 29.0073 108.437 28.7927 108.437 28.494C108.437 28.1953 108.358 27.9713 108.199 27.822C108.04 27.6727 107.788 27.598 107.443 27.598H106.351V29.334H107.443ZM117.817 31C117.714 31 117.625 30.9673 117.551 30.902C117.485 30.8367 117.453 30.7527 117.453 30.65V25.624H115.367C115.264 25.624 115.175 25.5913 115.101 25.526C115.035 25.4607 115.003 25.3767 115.003 25.274V24.07C115.003 23.9673 115.035 23.8833 115.101 23.818C115.175 23.7527 115.264 23.72 115.367 23.72H121.975C122.077 23.72 122.161 23.7527 122.227 23.818C122.292 23.8833 122.325 23.9673 122.325 24.07V25.274C122.325 25.3673 122.292 25.4513 122.227 25.526C122.161 25.5913 122.077 25.624 121.975 25.624H119.875V30.65C119.875 30.7433 119.842 30.8273 119.777 30.902C119.711 30.9673 119.627 31 119.525 31H117.817ZM123.679 31C123.586 31 123.502 30.9673 123.427 30.902C123.362 30.8273 123.329 30.7433 123.329 30.65V24.07C123.329 23.9673 123.362 23.8833 123.427 23.818C123.502 23.7527 123.586 23.72 123.679 23.72H125.443C125.546 23.72 125.63 23.7527 125.695 23.818C125.761 23.8833 125.793 23.9673 125.793 24.07V25.946H127.109C128.043 25.946 128.771 26.1747 129.293 26.632C129.816 27.08 130.077 27.7007 130.077 28.494C130.077 29.306 129.811 29.9267 129.279 30.356C128.747 30.7853 128.001 31 127.039 31H123.679ZM126.885 29.334C127.231 29.334 127.483 29.2687 127.641 29.138C127.809 29.0073 127.893 28.7927 127.893 28.494C127.893 27.8967 127.557 27.598 126.885 27.598H125.751V29.334H126.885Z" fill="white"/>
</svg>
