<svg width="28" height="28" viewBox="0 0 28 28" fill="none" xmlns="http://www.w3.org/2000/svg">
<path d="M13.9993 0.666504C6.63935 0.666504 0.666016 6.63984 0.666016 13.9998C0.666016 21.3598 6.63935 27.3332 13.9993 27.3332C21.3594 27.3332 27.3327 21.3598 27.3327 13.9998C27.3327 6.63984 21.3594 0.666504 13.9993 0.666504ZM13.9993 24.6665C8.11935 24.6665 3.33268 19.8798 3.33268 13.9998C3.33268 8.11984 8.11935 3.33317 13.9993 3.33317C19.8793 3.33317 24.666 8.11984 24.666 13.9998C24.666 19.8798 19.8793 24.6665 13.9993 24.6665ZM14.4127 12.8532C12.0527 12.2532 11.2927 11.5998 11.2927 10.6265C11.2927 9.50651 12.346 8.71984 14.0927 8.71984C15.9327 8.71984 16.626 9.59984 16.6793 10.9065H18.9594C18.8927 9.11984 17.7993 7.47984 15.6393 6.9465V4.6665H12.5327V6.91984C10.5193 7.3465 8.90602 8.65317 8.90602 10.6665C8.90602 13.0532 10.8927 14.2532 13.786 14.9465C16.386 15.5598 16.906 16.4798 16.906 17.4398C16.906 18.1465 16.386 19.2932 14.106 19.2932C11.9727 19.2932 11.1327 18.3332 11.0127 17.1065H8.71935C8.85268 19.3732 10.5327 20.6532 12.5327 21.0665V23.3332H15.6527V21.1065C17.6793 20.7198 19.2794 19.5598 19.2927 17.4132C19.2794 14.4798 16.7593 13.4665 14.4127 12.8532Z" fill="#EA0C0C"/>
</svg>
