<svg width="136" height="48" viewBox="0 0 136 48" fill="none" xmlns="http://www.w3.org/2000/svg">
<rect width="136" height="48" rx="8" fill="#EA0C0C"/>
<path d="M29.012 29.14C27.6867 29.14 26.6413 28.818 25.876 28.174C25.1107 27.53 24.7047 26.5827 24.658 25.332C24.6487 25.0707 24.644 24.6693 24.644 24.128C24.644 23.5867 24.6487 23.1807 24.658 22.91C24.6953 21.678 25.1013 20.7307 25.876 20.068C26.66 19.396 27.7053 19.06 29.012 19.06C30.3093 19.06 31.3453 19.396 32.12 20.068C32.904 20.7307 33.3147 21.678 33.352 22.91C33.3707 23.4513 33.38 23.8573 33.38 24.128C33.38 24.408 33.3707 24.8093 33.352 25.332C33.3053 26.5827 32.8993 27.53 32.134 28.174C31.378 28.818 30.3373 29.14 29.012 29.14ZM29.012 27.04C29.4973 27.04 29.8847 26.8953 30.174 26.606C30.4633 26.3073 30.6173 25.8547 30.636 25.248C30.6547 24.7067 30.664 24.3193 30.664 24.086C30.664 23.8527 30.6547 23.4747 30.636 22.952C30.6173 22.3453 30.4633 21.8973 30.174 21.608C29.8847 21.3093 29.4973 21.16 29.012 21.16C28.5173 21.16 28.1253 21.3093 27.836 21.608C27.5467 21.8973 27.3927 22.3453 27.374 22.952C27.3647 23.2133 27.36 23.5913 27.36 24.086C27.36 24.59 27.3647 24.9773 27.374 25.248C27.3927 25.8547 27.5467 26.3073 27.836 26.606C28.1253 26.8953 28.5173 27.04 29.012 27.04ZM37.4798 29C37.3771 29 37.2885 28.9673 37.2138 28.902C37.1485 28.8367 37.1158 28.7527 37.1158 28.65V21.482H34.6518C34.5491 21.482 34.4605 21.4493 34.3858 21.384C34.3205 21.3187 34.2878 21.2347 34.2878 21.132V19.564C34.2878 19.4613 34.3205 19.3773 34.3858 19.312C34.4605 19.2373 34.5491 19.2 34.6518 19.2H42.2538C42.3565 19.2 42.4405 19.2373 42.5058 19.312C42.5805 19.3773 42.6178 19.4613 42.6178 19.564V21.132C42.6178 21.2347 42.5805 21.3187 42.5058 21.384C42.4405 21.4493 42.3565 21.482 42.2538 21.482H39.7898V28.65C39.7898 28.7527 39.7525 28.8367 39.6778 28.902C39.6125 28.9673 39.5285 29 39.4258 29H37.4798ZM44.1965 29C44.0939 29 44.0099 28.9673 43.9445 28.902C43.8792 28.8367 43.8465 28.7527 43.8465 28.65V19.564C43.8465 19.4613 43.8792 19.3773 43.9445 19.312C44.0099 19.2373 44.0939 19.2 44.1965 19.2H52.0505C52.1532 19.2 52.2372 19.2373 52.3025 19.312C52.3772 19.3773 52.4145 19.4613 52.4145 19.564V28.65C52.4145 28.7527 52.3772 28.8367 52.3025 28.902C52.2372 28.9673 52.1532 29 52.0505 29H50.1465C50.0439 29 49.9552 28.9673 49.8805 28.902C49.8152 28.8367 49.7825 28.7527 49.7825 28.65V21.538H46.4785V28.65C46.4785 28.7527 46.4412 28.8367 46.3665 28.902C46.3012 28.9673 46.2172 29 46.1145 29H44.1965ZM54.6692 29C54.5759 29 54.4919 28.9673 54.4172 28.902C54.3519 28.8273 54.3192 28.7433 54.3192 28.65V19.564C54.3192 19.4613 54.3519 19.3773 54.4172 19.312C54.4825 19.2373 54.5665 19.2 54.6692 19.2H58.6312C59.8445 19.2 60.7965 19.4753 61.4872 20.026C62.1779 20.5767 62.5232 21.384 62.5232 22.448C62.5232 23.512 62.1779 24.31 61.4872 24.842C60.7965 25.3647 59.8445 25.626 58.6312 25.626H57.0352V28.65C57.0352 28.7433 57.0025 28.8273 56.9372 28.902C56.8719 28.9673 56.7879 29 56.6852 29H54.6692ZM58.5612 23.624C58.9439 23.624 59.2425 23.526 59.4572 23.33C59.6812 23.1247 59.7932 22.826 59.7932 22.434C59.7932 22.07 59.6905 21.776 59.4852 21.552C59.2892 21.328 58.9812 21.216 58.5612 21.216H56.9932V23.624H58.5612ZM63.2751 29C63.2005 29 63.1305 28.972 63.0651 28.916C63.0091 28.8507 62.9811 28.7807 62.9811 28.706C62.9811 28.65 62.9858 28.608 62.9951 28.58L66.2571 19.606C66.3505 19.3353 66.5371 19.2 66.8171 19.2H69.0011C69.2811 19.2 69.4678 19.3353 69.5611 19.606L72.8231 28.58C72.8325 28.608 72.8371 28.65 72.8371 28.706C72.8371 28.7807 72.8045 28.8507 72.7391 28.916C72.6831 28.972 72.6178 29 72.5431 29H70.7231C70.4991 29 70.3405 28.8973 70.2471 28.692L69.7431 27.334H66.0751L65.5711 28.692C65.4778 28.8973 65.3191 29 65.0951 29H63.2751ZM66.6631 25.234H69.1551L67.9091 21.664L66.6631 25.234ZM74.2473 29C74.154 29 74.07 28.9673 73.9953 28.902C73.93 28.8273 73.8973 28.7433 73.8973 28.65V19.564C73.8973 19.4613 73.93 19.3773 73.9953 19.312C74.0606 19.2373 74.1446 19.2 74.2473 19.2H78.5733C79.7586 19.2 80.6406 19.4427 81.2193 19.928C81.798 20.4133 82.0873 21.104 82.0873 22C82.0873 22.448 81.966 22.8353 81.7233 23.162C81.49 23.4887 81.2286 23.7267 80.9393 23.876C81.322 24.044 81.644 24.324 81.9053 24.716C82.1666 25.0987 82.2973 25.5327 82.2973 26.018C82.2973 26.9607 81.9846 27.6933 81.3593 28.216C80.7433 28.7387 79.8566 29 78.6993 29H74.2473ZM78.2793 23.078C78.6246 23.078 78.8906 22.9847 79.0773 22.798C79.264 22.6113 79.3573 22.3687 79.3573 22.07C79.3573 21.7807 79.264 21.5473 79.0773 21.37C78.9 21.1833 78.634 21.09 78.2793 21.09H76.5293V23.078H78.2793ZM78.4053 27.11C78.7693 27.11 79.0493 27.0073 79.2453 26.802C79.4506 26.5873 79.5533 26.326 79.5533 26.018C79.5533 25.7007 79.4506 25.4393 79.2453 25.234C79.04 25.0193 78.76 24.912 78.4053 24.912H76.5293V27.11H78.4053ZM84.1458 29C84.0431 29 83.9591 28.9673 83.8938 28.902C83.8284 28.8273 83.7958 28.7387 83.7958 28.636V19.564C83.7958 19.4613 83.8284 19.3773 83.8938 19.312C83.9684 19.2373 84.0571 19.2 84.1598 19.2H86.0638C86.1664 19.2 86.2504 19.2373 86.3158 19.312C86.3904 19.3773 86.4278 19.4613 86.4278 19.564V25.038L90.2918 19.466C90.4038 19.2887 90.5624 19.2 90.7678 19.2H92.4898C92.5924 19.2 92.6764 19.2373 92.7418 19.312C92.8071 19.3773 92.8398 19.4613 92.8398 19.564V28.65C92.8398 28.7433 92.8071 28.8273 92.7418 28.902C92.6764 28.9673 92.5924 29 92.4898 29H90.5718C90.4691 29 90.3804 28.9673 90.3058 28.902C90.2404 28.8367 90.2078 28.7527 90.2078 28.65V23.386L86.3438 28.734C86.2878 28.818 86.2224 28.8833 86.1478 28.93C86.0824 28.9767 85.9891 29 85.8678 29H84.1458ZM97.2669 29C97.1643 29 97.0756 28.9673 97.0009 28.902C96.9356 28.8367 96.9029 28.7527 96.9029 28.65V21.482H94.4389C94.3363 21.482 94.2476 21.4493 94.1729 21.384C94.1076 21.3187 94.0749 21.2347 94.0749 21.132V19.564C94.0749 19.4613 94.1076 19.3773 94.1729 19.312C94.2476 19.2373 94.3363 19.2 94.4389 19.2H102.041C102.144 19.2 102.228 19.2373 102.293 19.312C102.368 19.3773 102.405 19.4613 102.405 19.564V21.132C102.405 21.2347 102.368 21.3187 102.293 21.384C102.228 21.4493 102.144 21.482 102.041 21.482H99.5769V28.65C99.5769 28.7527 99.5396 28.8367 99.4649 28.902C99.3996 28.9673 99.3156 29 99.2129 29H97.2669ZM103.984 29C103.89 29 103.806 28.9673 103.732 28.902C103.666 28.8273 103.634 28.7433 103.634 28.65V19.55C103.634 19.4473 103.666 19.3633 103.732 19.298C103.806 19.2327 103.89 19.2 103.984 19.2H105.902C106.004 19.2 106.088 19.2327 106.154 19.298C106.228 19.3633 106.266 19.4473 106.266 19.55V22.532H107.68C108.912 22.532 109.859 22.8027 110.522 23.344C111.184 23.876 111.516 24.6647 111.516 25.71C111.516 26.718 111.18 27.5207 110.508 28.118C109.836 28.706 108.893 29 107.68 29H103.984ZM107.624 26.984C107.997 26.984 108.282 26.8673 108.478 26.634C108.683 26.4007 108.786 26.0973 108.786 25.724C108.786 25.332 108.683 25.038 108.478 24.842C108.282 24.6367 107.997 24.534 107.624 24.534H106.266V26.984H107.624Z" fill="white"/>
</svg>
