<svg width="40" height="40" viewBox="0 0 40 40" fill="none" xmlns="http://www.w3.org/2000/svg">
<rect width="40" height="40" rx="20" fill="#EAEDEE"/>
<path d="M30 25H10C9.73478 25 9.48043 25.1054 9.29289 25.2929C9.10536 25.4804 9 25.7348 9 26C9 26.2652 9.10536 26.5196 9.29289 26.7071C9.48043 26.8946 9.73478 27 10 27H30C30.2652 27 30.5196 26.8946 30.7071 26.7071C30.8946 26.5196 31 26.2652 31 26C31 25.7348 30.8946 25.4804 30.7071 25.2929C30.5196 25.1054 30.2652 25 30 25ZM30 29H10C9.73478 29 9.48043 29.1054 9.29289 29.2929C9.10536 29.4804 9 29.7348 9 30C9 30.2652 9.10536 30.5196 9.29289 30.7071C9.48043 30.8946 9.73478 31 10 31H30C30.2652 31 30.5196 30.8946 30.7071 30.7071C30.8946 30.5196 31 30.2652 31 30C31 29.7348 30.8946 29.4804 30.7071 29.2929C30.5196 29.1054 30.2652 29 30 29ZM14 15C13.8022 15 13.6089 15.0586 13.4444 15.1685C13.28 15.2784 13.1518 15.4346 13.0761 15.6173C13.0004 15.8 12.9806 16.0011 13.0192 16.1951C13.0578 16.3891 13.153 16.5673 13.2929 16.7071C13.4327 16.847 13.6109 16.9422 13.8049 16.9808C13.9989 17.0194 14.2 16.9996 14.3827 16.9239C14.5654 16.8482 14.7216 16.72 14.8315 16.5556C14.9414 16.3911 15 16.1978 15 16C15 15.7348 14.8946 15.4804 14.7071 15.2929C14.5196 15.1054 14.2652 15 14 15ZM28 9H12C11.2044 9 10.4413 9.31607 9.87868 9.87868C9.31607 10.4413 9 11.2044 9 12V20C9 20.7956 9.31607 21.5587 9.87868 22.1213C10.4413 22.6839 11.2044 23 12 23H28C28.7956 23 29.5587 22.6839 30.1213 22.1213C30.6839 21.5587 31 20.7956 31 20V12C31 11.2044 30.6839 10.4413 30.1213 9.87868C29.5587 9.31607 28.7956 9 28 9ZM29 20C29 20.2652 28.8946 20.5196 28.7071 20.7071C28.5196 20.8946 28.2652 21 28 21H12C11.7348 21 11.4804 20.8946 11.2929 20.7071C11.1054 20.5196 11 20.2652 11 20V12C11 11.7348 11.1054 11.4804 11.2929 11.2929C11.4804 11.1054 11.7348 11 12 11H28C28.2652 11 28.5196 11.1054 28.7071 11.2929C28.8946 11.4804 29 11.7348 29 12V20ZM20 13C19.4067 13 18.8266 13.1759 18.3333 13.5056C17.8399 13.8352 17.4554 14.3038 17.2284 14.8519C17.0013 15.4001 16.9419 16.0033 17.0576 16.5853C17.1734 17.1672 17.4591 17.7018 17.8787 18.1213C18.2982 18.5409 18.8328 18.8266 19.4147 18.9424C19.9967 19.0581 20.5999 18.9987 21.1481 18.7716C21.6962 18.5446 22.1648 18.1601 22.4944 17.6667C22.8241 17.1734 23 16.5933 23 16C23 15.2044 22.6839 14.4413 22.1213 13.8787C21.5587 13.3161 20.7956 13 20 13ZM20 17C19.8022 17 19.6089 16.9414 19.4444 16.8315C19.28 16.7216 19.1518 16.5654 19.0761 16.3827C19.0004 16.2 18.9806 15.9989 19.0192 15.8049C19.0578 15.6109 19.153 15.4327 19.2929 15.2929C19.4327 15.153 19.6109 15.0578 19.8049 15.0192C19.9989 14.9806 20.2 15.0004 20.3827 15.0761C20.5654 15.1518 20.7216 15.28 20.8315 15.4444C20.9414 15.6089 21 15.8022 21 16C21 16.2652 20.8946 16.5196 20.7071 16.7071C20.5196 16.8946 20.2652 17 20 17ZM26 15C25.8022 15 25.6089 15.0586 25.4444 15.1685C25.28 15.2784 25.1518 15.4346 25.0761 15.6173C25.0004 15.8 24.9806 16.0011 25.0192 16.1951C25.0578 16.3891 25.153 16.5673 25.2929 16.7071C25.4327 16.847 25.6109 16.9422 25.8049 16.9808C25.9989 17.0194 26.2 16.9996 26.3827 16.9239C26.5654 16.8482 26.7216 16.72 26.8315 16.5556C26.9414 16.3911 27 16.1978 27 16C27 15.7348 26.8946 15.4804 26.7071 15.2929C26.5196 15.1054 26.2652 15 26 15Z" fill="#828282"/>
</svg>
