<svg width="40" height="40" viewBox="0 0 40 40" fill="none" xmlns="http://www.w3.org/2000/svg">
<rect width="40" height="40" rx="20" fill="#EAEDEE"/>
<path d="M13.5 20V19.5H13H10C9.86739 19.5 9.74021 19.4473 9.64645 19.3536C9.55268 19.2598 9.5 19.1326 9.5 19V11C9.5 10.8674 9.55268 10.7402 9.64645 10.6464C9.74021 10.5527 9.86739 10.5 10 10.5H30C30.1326 10.5 30.2598 10.5527 30.3536 10.6464C30.4473 10.7402 30.5 10.8674 30.5 11V19C30.5 19.1326 30.4473 19.2598 30.3536 19.3536C30.2598 19.4473 30.1326 19.5 30 19.5H27H26.5V20V29C26.5 29.1326 26.4473 29.2598 26.3536 29.3536C26.2598 29.4473 26.1326 29.5 26 29.5H14C13.8674 29.5 13.7402 29.4473 13.6464 29.3536C13.5527 29.2598 13.5 29.1326 13.5 29V20ZM14.5 28V28.5H15H17H17.5V28C17.5 27.337 17.2366 26.7011 16.7678 26.2322C16.2989 25.7634 15.663 25.5 15 25.5H14.5V26V28ZM25 28.5H25.5V28V26V25.5H25C24.337 25.5 23.7011 25.7634 23.2322 26.2322C22.7634 26.7011 22.5 27.337 22.5 28V28.5H23H25ZM25 24.5H25.5V24V16V15.5H25H15H14.5V16V24V24.5H15C15.9283 24.5 16.8185 24.8687 17.4749 25.5251C18.1313 26.1815 18.5 27.0717 18.5 28V28.5H19H21H21.5V28C21.5 27.0717 21.8687 26.1815 22.5251 25.5251C23.1815 24.8687 24.0717 24.5 25 24.5ZM29 18.5H29.5V18V12V11.5H29H11H10.5V12V18V18.5H11H13H13.5V18V15C13.5 14.8674 13.5527 14.7402 13.6464 14.6464C13.7402 14.5527 13.8674 14.5 14 14.5H26C26.1326 14.5 26.2598 14.5527 26.3536 14.6464C26.4473 14.7402 26.5 14.8674 26.5 15V18V18.5H27H29ZM21.3889 22.0787C20.9778 22.3534 20.4945 22.5 20 22.5C19.337 22.5 18.7011 22.2366 18.2322 21.7678C17.7634 21.2989 17.5 20.663 17.5 20C17.5 19.5055 17.6466 19.0222 17.9213 18.6111C18.196 18.2 18.5865 17.8795 19.0433 17.6903C19.5001 17.5011 20.0028 17.4516 20.4877 17.548C20.9727 17.6445 21.4181 17.8826 21.7678 18.2322C22.1174 18.5819 22.3555 19.0273 22.452 19.5123C22.5484 19.9972 22.4989 20.4999 22.3097 20.9567C22.1205 21.4135 21.8 21.804 21.3889 22.0787ZM20.8334 18.7528C20.5867 18.588 20.2967 18.5 20 18.5C19.6022 18.5 19.2206 18.658 18.9393 18.9393C18.658 19.2206 18.5 19.6022 18.5 20C18.5 20.2967 18.588 20.5867 18.7528 20.8334C18.9176 21.08 19.1519 21.2723 19.426 21.3858C19.7001 21.4994 20.0017 21.5291 20.2926 21.4712C20.5836 21.4133 20.8509 21.2704 21.0607 21.0607C21.2704 20.8509 21.4133 20.5836 21.4712 20.2926C21.5291 20.0017 21.4994 19.7001 21.3858 19.426C21.2723 19.1519 21.08 18.9176 20.8334 18.7528Z" fill="#828282" stroke="#828282"/>
</svg>
