<svg width="40" height="40" viewBox="0 0 40 40" fill="none" xmlns="http://www.w3.org/2000/svg">
<rect width="40" height="40" rx="20" fill="#EAEDEE"/>
<g clip-path="url(#clip0_16693_11583)">
<path d="M26 10H14C12.9 10 12 10.9 12 12V28C12 29.1 12.9 30 14 30H26C27.1 30 28 29.1 28 28V12C28 10.9 27.1 10 26 10ZM17 12H19V17L18 16.25L17 17V12ZM26 28H14V12H15V21L18 18.75L21 21V12H26V28Z" fill="#828282"/>
</g>
<defs>
<clipPath id="clip0_16693_11583">
<rect width="24" height="24" fill="white" transform="translate(8 8)"/>
</clipPath>
</defs>
</svg>
