<svg width="40" height="40" viewBox="0 0 40 40" fill="none" xmlns="http://www.w3.org/2000/svg">
<rect width="40" height="40" rx="20" fill="#EAEDEE"/>
<path d="M20 30C22.7614 30 25.2614 28.8807 27.0711 27.0711C28.8807 25.2614 30 22.7614 30 20C30 17.2386 28.8807 14.7386 27.0711 12.9289C25.2614 11.1193 22.7614 10 20 10C17.2386 10 14.7386 11.1193 12.9289 12.9289C11.1193 14.7386 10 17.2386 10 20C10 22.7614 11.1193 25.2614 12.9289 27.0711C14.7386 28.8807 17.2386 30 20 30Z" stroke="#828282" stroke-width="2" stroke-linejoin="round"/>
<path d="M20 22.3125V20.3125C21.6568 20.3125 23 18.9694 23 17.3125C23 15.6557 21.6568 14.3125 20 14.3125C18.3432 14.3125 17 15.6557 17 17.3125" stroke="#828282" stroke-width="2" stroke-linecap="round" stroke-linejoin="round"/>
<path d="M21 25.5625C21 26.1148 20.5523 26.5625 20 26.5625C19.4477 26.5625 19 26.1148 19 25.5625C19 25.0102 19.4477 24.5625 20 24.5625C20.5523 24.5625 21 25.0102 21 25.5625Z" fill="#828282" stroke="#828282" stroke-width="0.5"/>
</svg>
