<svg width="194" height="52" viewBox="0 0 194 52" fill="none" xmlns="http://www.w3.org/2000/svg">
<rect x="0.5" width="193" height="52" rx="8" fill="#95A4AA"/>
<path d="M43.5 16H29.5C28.9477 16 28.5 16.4477 28.5 17V35C28.5 35.5523 28.9477 36 29.5 36H43.5C44.0523 36 44.5 35.5523 44.5 35V17C44.5 16.4477 44.0523 16 43.5 16Z" stroke="white" stroke-width="2" stroke-linecap="round" stroke-linejoin="round"/>
<path d="M33 29H40" stroke="white" stroke-width="2" stroke-linecap="round" stroke-linejoin="round"/>
<path d="M33 32H36.5" stroke="white" stroke-width="2" stroke-linecap="round" stroke-linejoin="round"/>
<path d="M39.5 20.5L35.5 24.5L33.5 22.5" stroke="white" stroke-width="2" stroke-linecap="round" stroke-linejoin="round"/>
<path d="M59.648 31C59.5547 31 59.4707 30.9673 59.396 30.902C59.3307 30.8273 59.298 30.7433 59.298 30.65V24.07C59.298 23.9673 59.3307 23.8833 59.396 23.818C59.4707 23.7527 59.5547 23.72 59.648 23.72H62.966C64.058 23.72 64.87 23.902 65.402 24.266C65.9433 24.63 66.214 25.1433 66.214 25.806C66.214 26.1327 66.1487 26.4127 66.018 26.646C65.8873 26.87 65.7007 27.066 65.458 27.234C65.766 27.3927 66.004 27.612 66.172 27.892C66.3493 28.1627 66.438 28.48 66.438 28.844C66.438 29.5253 66.1673 30.0573 65.626 30.44C65.0847 30.8133 64.268 31 63.176 31H59.648ZM63.022 26.548C63.6193 26.548 63.918 26.324 63.918 25.876C63.918 25.652 63.8387 25.498 63.68 25.414C63.5307 25.3207 63.3113 25.274 63.022 25.274H61.678V26.548H63.022ZM63.05 29.446C63.6567 29.446 63.96 29.236 63.96 28.816C63.96 28.5827 63.8853 28.4147 63.736 28.312C63.5867 28.2093 63.358 28.158 63.05 28.158H61.678V29.446H63.05ZM68.1929 31C68.0996 31 68.0156 30.9673 67.9409 30.902C67.8756 30.8273 67.8429 30.7433 67.8429 30.65V24.07C67.8429 23.9673 67.8756 23.8833 67.9409 23.818C68.0156 23.7527 68.0996 23.72 68.1929 23.72H69.9569C70.0596 23.72 70.1436 23.7527 70.2089 23.818C70.2743 23.8833 70.3069 23.9673 70.3069 24.07V25.946H71.5669C72.5003 25.946 73.2283 26.1747 73.7509 26.632C74.2829 27.08 74.5489 27.7007 74.5489 28.494C74.5489 29.306 74.2783 29.9267 73.7369 30.356C73.2049 30.7853 72.4583 31 71.4969 31H68.1929ZM75.7389 31C75.6456 31 75.5616 30.9673 75.4869 30.902C75.4216 30.8273 75.3889 30.7433 75.3889 30.65V24.07C75.3889 23.9673 75.4216 23.8833 75.4869 23.818C75.5616 23.7527 75.6456 23.72 75.7389 23.72H77.4889C77.5916 23.72 77.6756 23.7527 77.7409 23.818C77.8156 23.8833 77.8529 23.9673 77.8529 24.07V30.65C77.8529 30.7527 77.8156 30.8367 77.7409 30.902C77.6756 30.9673 77.5916 31 77.4889 31H75.7389ZM71.3569 29.334C71.7023 29.334 71.9543 29.2687 72.1129 29.138C72.2716 29.0073 72.3509 28.7927 72.3509 28.494C72.3509 28.1953 72.2716 27.9713 72.1129 27.822C71.9543 27.6727 71.7023 27.598 71.3569 27.598H70.2649V29.334H71.3569ZM79.8687 31C79.7754 31 79.6914 30.9673 79.6167 30.902C79.5514 30.8273 79.5187 30.7433 79.5187 30.65V24.07C79.5187 23.9673 79.5514 23.8833 79.6167 23.818C79.6914 23.7527 79.7754 23.72 79.8687 23.72H84.6007C84.7034 23.72 84.7874 23.7527 84.8527 23.818C84.918 23.8833 84.9507 23.9673 84.9507 24.07V25.274C84.9507 25.3673 84.918 25.4513 84.8527 25.526C84.7874 25.5913 84.7034 25.624 84.6007 25.624H81.9827V30.65C81.9827 30.7527 81.9454 30.8367 81.8707 30.902C81.8054 30.9673 81.7214 31 81.6187 31H79.8687ZM86.3495 33.66C86.2468 33.66 86.1582 33.6273 86.0835 33.562C86.0182 33.4967 85.9855 33.4127 85.9855 33.31V24.07C85.9855 23.9673 86.0182 23.8833 86.0835 23.818C86.1582 23.7527 86.2468 23.72 86.3495 23.72H88.0155C88.1182 23.72 88.2022 23.7527 88.2675 23.818C88.3328 23.8833 88.3655 23.9673 88.3655 24.07V24.574C88.8695 23.9113 89.5928 23.58 90.5355 23.58C91.4408 23.58 92.1502 23.8647 92.6635 24.434C93.1862 24.994 93.4662 25.7967 93.5035 26.842C93.5128 26.9633 93.5175 27.136 93.5175 27.36C93.5175 27.584 93.5128 27.7613 93.5035 27.892C93.4662 28.9 93.1862 29.6933 92.6635 30.272C92.1408 30.8507 91.4315 31.14 90.5355 31.14C89.6302 31.14 88.9535 30.832 88.5055 30.216V33.31C88.5055 33.4127 88.4728 33.4967 88.4075 33.562C88.3422 33.6273 88.2582 33.66 88.1555 33.66H86.3495ZM89.7235 29.194C90.1435 29.194 90.4422 29.0727 90.6195 28.83C90.8062 28.578 90.9135 28.2327 90.9415 27.794C90.9508 27.7007 90.9555 27.556 90.9555 27.36C90.9555 27.164 90.9508 27.0193 90.9415 26.926C90.9135 26.4873 90.8062 26.1467 90.6195 25.904C90.4422 25.652 90.1435 25.526 89.7235 25.526C89.3222 25.526 89.0235 25.6567 88.8275 25.918C88.6315 26.17 88.5242 26.492 88.5055 26.884C88.4962 27.0053 88.4915 27.1827 88.4915 27.416C88.4915 27.64 88.4962 27.8127 88.5055 27.934C88.5242 28.298 88.6315 28.6013 88.8275 28.844C89.0328 29.0773 89.3315 29.194 89.7235 29.194ZM101.558 23.72C101.642 23.72 101.712 23.7527 101.768 23.818C101.833 23.874 101.866 23.9393 101.866 24.014C101.866 24.0793 101.852 24.14 101.824 24.196L99.1641 30.622C98.8654 31.3313 98.5808 31.896 98.3101 32.316C98.0394 32.7453 97.7174 33.0767 97.3441 33.31C96.9801 33.5527 96.5274 33.674 95.9861 33.674H95.2861C95.1834 33.674 95.0948 33.6367 95.0201 33.562C94.9548 33.4967 94.9221 33.4127 94.9221 33.31V32.12C94.9221 32.0173 94.9548 31.9333 95.0201 31.868C95.0948 31.8027 95.1834 31.77 95.2861 31.77H95.7761C96.0188 31.77 96.2054 31.7 96.3361 31.56C96.4668 31.4293 96.6114 31.1727 96.7701 30.79L96.8261 30.664L94.0401 24.196C94.0121 24.1213 93.9981 24.07 93.9981 24.042C94.0168 23.9487 94.0541 23.874 94.1101 23.818C94.1754 23.7527 94.2501 23.72 94.3341 23.72H96.0001C96.1961 23.72 96.3314 23.818 96.4061 24.014L97.9321 27.948L99.5421 24.014C99.6168 23.818 99.7614 23.72 99.9761 23.72H101.558ZM106.006 31.14C105.194 31.14 104.54 31.028 104.046 30.804C103.551 30.5707 103.192 30.2953 102.968 29.978C102.753 29.6513 102.627 29.3247 102.59 28.998V28.97C102.59 28.914 102.618 28.8627 102.674 28.816C102.73 28.7693 102.786 28.746 102.842 28.746H104.55C104.652 28.746 104.727 28.7647 104.774 28.802C104.83 28.83 104.881 28.8813 104.928 28.956C105.002 29.124 105.128 29.25 105.306 29.334C105.483 29.4087 105.726 29.446 106.034 29.446C106.351 29.446 106.594 29.39 106.762 29.278C106.939 29.1567 107.028 28.9747 107.028 28.732C107.028 28.508 106.958 28.34 106.818 28.228C106.687 28.1067 106.463 28.046 106.146 28.046H105.362C105.278 28.046 105.203 28.018 105.138 27.962C105.082 27.8967 105.054 27.822 105.054 27.738V26.898C105.054 26.814 105.082 26.744 105.138 26.688C105.194 26.6227 105.268 26.59 105.362 26.59H106.104C106.384 26.59 106.584 26.5433 106.706 26.45C106.836 26.3473 106.902 26.1933 106.902 25.988C106.902 25.7827 106.827 25.6147 106.678 25.484C106.528 25.3533 106.295 25.288 105.978 25.288C105.67 25.288 105.441 25.33 105.292 25.414C105.152 25.498 105.035 25.638 104.942 25.834C104.895 25.9087 104.844 25.9647 104.788 26.002C104.741 26.03 104.666 26.044 104.564 26.044H102.912C102.837 26.044 102.772 26.0207 102.716 25.974C102.669 25.918 102.65 25.8573 102.66 25.792C102.697 25.4373 102.828 25.092 103.052 24.756C103.276 24.42 103.63 24.14 104.116 23.916C104.601 23.692 105.231 23.58 106.006 23.58C107.135 23.58 107.961 23.7713 108.484 24.154C109.006 24.5367 109.268 25.036 109.268 25.652C109.268 26.3707 108.964 26.8747 108.358 27.164C109.086 27.4253 109.459 28.018 109.478 28.942C109.478 29.614 109.165 30.1507 108.54 30.552C107.924 30.944 107.079 31.14 106.006 31.14ZM117.94 23.72C118.034 23.72 118.113 23.7527 118.178 23.818C118.253 23.8833 118.29 23.9627 118.29 24.056V30.65C118.29 30.7433 118.258 30.8273 118.192 30.902C118.127 30.9673 118.043 31 117.94 31H116.19C116.088 31 115.999 30.9673 115.924 30.902C115.859 30.8367 115.826 30.7527 115.826 30.65V26.856L113.096 30.776C112.994 30.9253 112.863 31 112.704 31H111.136C111.043 31 110.959 30.9673 110.884 30.902C110.819 30.8273 110.786 30.7433 110.786 30.65V24.07C110.786 23.9673 110.819 23.8833 110.884 23.818C110.959 23.7527 111.043 23.72 111.136 23.72H112.886C112.989 23.72 113.073 23.7527 113.138 23.818C113.213 23.8833 113.25 23.9673 113.25 24.07V27.864L115.98 23.944C116.083 23.7947 116.214 23.72 116.372 23.72H117.94ZM121.967 31C121.864 31 121.776 30.9673 121.701 30.902C121.636 30.8367 121.603 30.7527 121.603 30.65V25.624H119.517C119.414 25.624 119.326 25.5913 119.251 25.526C119.186 25.4607 119.153 25.3767 119.153 25.274V24.07C119.153 23.9673 119.186 23.8833 119.251 23.818C119.326 23.7527 119.414 23.72 119.517 23.72H126.125C126.228 23.72 126.312 23.7527 126.377 23.818C126.442 23.8833 126.475 23.9673 126.475 24.07V25.274C126.475 25.3673 126.442 25.4513 126.377 25.526C126.312 25.5913 126.228 25.624 126.125 25.624H124.025V30.65C124.025 30.7433 123.992 30.8273 123.927 30.902C123.862 30.9673 123.778 31 123.675 31H121.967ZM127.83 31C127.736 31 127.652 30.9673 127.578 30.902C127.512 30.8273 127.48 30.7433 127.48 30.65V24.07C127.48 23.9673 127.512 23.8833 127.578 23.818C127.652 23.7527 127.736 23.72 127.83 23.72H129.594C129.696 23.72 129.78 23.7527 129.846 23.818C129.911 23.8833 129.944 23.9673 129.944 24.07V25.946H131.26C132.193 25.946 132.921 26.1747 133.444 26.632C133.966 27.08 134.228 27.7007 134.228 28.494C134.228 29.306 133.962 29.9267 133.43 30.356C132.898 30.7853 132.151 31 131.19 31H127.83ZM131.036 29.334C131.381 29.334 131.633 29.2687 131.792 29.138C131.96 29.0073 132.044 28.7927 132.044 28.494C132.044 27.8967 131.708 27.598 131.036 27.598H129.902V29.334H131.036ZM138.671 31C138.578 31 138.494 30.9673 138.419 30.902C138.354 30.8273 138.321 30.7433 138.321 30.65V24.07C138.321 23.9673 138.354 23.8833 138.419 23.818C138.494 23.7527 138.578 23.72 138.671 23.72H141.989C143.081 23.72 143.893 23.902 144.425 24.266C144.967 24.63 145.237 25.1433 145.237 25.806C145.237 26.1327 145.172 26.4127 145.041 26.646C144.911 26.87 144.724 27.066 144.481 27.234C144.789 27.3927 145.027 27.612 145.195 27.892C145.373 28.1627 145.461 28.48 145.461 28.844C145.461 29.5253 145.191 30.0573 144.649 30.44C144.108 30.8133 143.291 31 142.199 31H138.671ZM142.045 26.548C142.643 26.548 142.941 26.324 142.941 25.876C142.941 25.652 142.862 25.498 142.703 25.414C142.554 25.3207 142.335 25.274 142.045 25.274H140.701V26.548H142.045ZM142.073 29.446C142.68 29.446 142.983 29.236 142.983 28.816C142.983 28.5827 142.909 28.4147 142.759 28.312C142.61 28.2093 142.381 28.158 142.073 28.158H140.701V29.446H142.073ZM149.526 31C149.442 31 149.367 30.972 149.302 30.916C149.236 30.8507 149.204 30.7713 149.204 30.678C149.204 30.6033 149.232 30.5333 149.288 30.468L151.612 27.262L149.498 24.252C149.442 24.1773 149.414 24.1073 149.414 24.042C149.414 23.9487 149.446 23.874 149.512 23.818C149.577 23.7527 149.652 23.72 149.736 23.72H151.542C151.654 23.72 151.738 23.7433 151.794 23.79C151.85 23.8367 151.906 23.8973 151.962 23.972L153.194 25.694L154.44 23.972C154.449 23.9627 154.472 23.9347 154.51 23.888C154.547 23.8413 154.594 23.804 154.65 23.776C154.715 23.7387 154.785 23.72 154.86 23.72H156.582C156.666 23.72 156.74 23.7527 156.806 23.818C156.871 23.874 156.904 23.944 156.904 24.028C156.904 24.1027 156.876 24.1773 156.82 24.252L154.664 27.262L157.03 30.468C157.076 30.5333 157.1 30.6033 157.1 30.678C157.1 30.7713 157.067 30.8507 157.002 30.916C156.946 30.972 156.871 31 156.778 31H154.888C154.729 31 154.598 30.9253 154.496 30.776L153.138 28.928L151.766 30.776C151.71 30.8507 151.654 30.9067 151.598 30.944C151.542 30.9813 151.462 31 151.36 31H149.526ZM158.469 31C158.366 31 158.277 30.9673 158.203 30.902C158.137 30.8367 158.105 30.7527 158.105 30.65V21.41C158.105 21.3073 158.137 21.2233 158.203 21.158C158.277 21.0927 158.366 21.06 158.469 21.06H160.219C160.321 21.06 160.405 21.0927 160.471 21.158C160.536 21.2233 160.569 21.3073 160.569 21.41V30.65C160.569 30.7433 160.536 30.8273 160.471 30.902C160.405 30.9673 160.321 31 160.219 31H158.469ZM165.217 31.14C164.452 31.14 163.813 31.0327 163.299 30.818C162.786 30.6033 162.403 30.3467 162.151 30.048C161.909 29.7493 161.787 29.4787 161.787 29.236C161.787 29.1427 161.82 29.068 161.885 29.012C161.96 28.9467 162.039 28.914 162.123 28.914H163.817C163.873 28.914 163.92 28.9327 163.957 28.97C164.116 29.0727 164.205 29.1333 164.223 29.152C164.401 29.2827 164.564 29.3853 164.713 29.46C164.872 29.5253 165.059 29.558 165.273 29.558C165.525 29.558 165.731 29.5113 165.889 29.418C166.057 29.3153 166.141 29.1753 166.141 28.998C166.141 28.8487 166.095 28.7273 166.001 28.634C165.917 28.5407 165.749 28.452 165.497 28.368C165.255 28.2747 164.881 28.1813 164.377 28.088C162.763 27.7613 161.955 27.0147 161.955 25.848C161.955 25.4653 162.077 25.1013 162.319 24.756C162.571 24.4013 162.935 24.1167 163.411 23.902C163.897 23.6873 164.475 23.58 165.147 23.58C165.829 23.58 166.417 23.6873 166.911 23.902C167.415 24.1073 167.798 24.3593 168.059 24.658C168.321 24.9473 168.451 25.2133 168.451 25.456C168.451 25.54 168.419 25.6147 168.353 25.68C168.297 25.7453 168.227 25.778 168.143 25.778H166.603C166.519 25.778 166.454 25.7593 166.407 25.722C166.295 25.666 166.183 25.596 166.071 25.512C165.903 25.4 165.754 25.316 165.623 25.26C165.502 25.1947 165.343 25.162 165.147 25.162C164.914 25.162 164.732 25.2133 164.601 25.316C164.471 25.4187 164.405 25.5493 164.405 25.708C164.405 25.848 164.443 25.9647 164.517 26.058C164.601 26.142 164.765 26.226 165.007 26.31C165.259 26.394 165.637 26.4827 166.141 26.576C167.056 26.7347 167.719 27.0193 168.129 27.43C168.549 27.8313 168.759 28.3027 168.759 28.844C168.759 29.544 168.447 30.104 167.821 30.524C167.205 30.9347 166.337 31.14 165.217 31.14Z" fill="white"/>
</svg>
