<svg width="32" height="32" viewBox="0 0 32 32" fill="none" xmlns="http://www.w3.org/2000/svg">
<g clip-path="url(#clip0_14856_154385)">
<path d="M15.9998 31.9999C24.8363 31.9999 31.9996 24.8365 31.9996 16.0001C31.9996 7.1636 24.8363 0.000244141 15.9998 0.000244141C7.16336 0.000244141 0 7.1636 0 16.0001C0 24.8365 7.16336 31.9999 15.9998 31.9999Z" fill="#41B4E6"/>
<path d="M14.4448 18.3315L21.6755 23.7907L25.3254 8.21021L6.67188 15.5477L12.3479 17.4277L22.7069 10.4792L14.4448 18.3315Z" fill="white"/>
<path d="M12.3496 17.4275L13.9042 23.0215L14.4465 18.3313L22.7086 10.479L12.3496 17.4275Z" fill="#D2D2D7"/>
<path d="M16.7966 20.1058L13.9043 23.0218L14.4466 18.3315L16.7966 20.1058Z" fill="#B9B9BE"/>
</g>
<defs>
<clipPath id="clip0_14856_154385">
<rect width="32" height="32" fill="white"/>
</clipPath>
</defs>
</svg>
