<svg width="32" height="32" viewBox="0 0 32 32" fill="none" xmlns="http://www.w3.org/2000/svg">
<g clip-path="url(#clip0_14856_154377)">
<path d="M16 31.9999C24.8365 31.9999 31.9999 24.8365 31.9999 16C31.9999 7.16343 24.8365 0 16 0C7.16343 0 0 7.16343 0 16C0 24.8365 7.16343 31.9999 16 31.9999Z" fill="#41B4E6"/>
<path d="M21.5982 26.0594H10.4002C7.93661 26.0594 5.93945 24.0623 5.93945 21.5987V10.4007C5.93945 7.9371 7.93655 5.93994 10.4002 5.93994H21.5982C24.0618 5.93994 26.059 7.93704 26.059 10.4007V21.5987C26.0589 24.0623 24.0618 26.0594 21.5982 26.0594Z" fill="#6E64C3"/>
<path d="M14.6056 14.2142C14.7598 14.101 14.8623 13.9309 14.8907 13.7417C14.9191 13.5525 14.8707 13.3598 14.7565 13.2064L13.9987 12.1884C13.9098 12.0689 13.7764 11.9905 13.6288 11.9709C13.4812 11.9513 13.3317 11.992 13.2147 12.084C13.075 12.194 12.9186 12.3167 12.7706 12.4319C12.4063 12.7157 12.2688 13.2023 12.43 13.635C13.3194 16.0216 15.1891 17.9142 17.5602 18.8341C18.0479 19.0233 18.6014 18.8276 18.8604 18.3732L19.1515 17.8622C19.2946 17.6111 19.2197 17.2922 18.9799 17.1311L18.0526 16.5081C17.8905 16.3992 17.6912 16.3611 17.5004 16.4022C17.3096 16.4434 17.1433 16.5603 17.0406 16.7264C17.0103 16.7754 16.981 16.8231 16.9536 16.8674C16.9154 16.9293 16.8538 16.9732 16.7828 16.989C16.7118 17.0048 16.6374 16.9912 16.5765 16.9514C15.6875 16.3692 14.928 15.6085 14.3475 14.7183C14.2687 14.5975 14.2989 14.4361 14.4161 14.3521C14.4745 14.3102 14.5392 14.263 14.6056 14.2142Z" fill="white"/>
<path d="M19.4638 15.5282C19.3107 15.5282 19.1865 15.404 19.1865 15.2509C19.1865 13.4259 17.7018 11.9412 15.8769 11.9412C15.7237 11.9412 15.5996 11.817 15.5996 11.664C15.5996 11.5108 15.7238 11.3867 15.8769 11.3867C18.0076 11.3867 19.741 13.1203 19.741 15.2509C19.741 15.404 19.617 15.5282 19.4638 15.5282Z" fill="white"/>
<path d="M18.5949 15.5284C18.4418 15.5284 18.3177 15.4043 18.3177 15.2512C18.3177 13.9053 17.2227 12.8104 15.8769 12.8104C15.7237 12.8104 15.5996 12.6862 15.5996 12.5331C15.5996 12.38 15.7238 12.2559 15.8769 12.2559C17.5285 12.2559 18.8722 13.5996 18.8722 15.2513C18.8722 15.4043 18.748 15.5284 18.5949 15.5284Z" fill="white"/>
<path d="M17.7416 15.5286C17.5884 15.5286 17.4643 15.4044 17.4643 15.2513C17.4643 14.376 16.7521 13.6639 15.8769 13.6639C15.7237 13.6639 15.5996 13.5397 15.5996 13.3866C15.5996 13.2335 15.7238 13.1094 15.8769 13.1094C17.058 13.1094 18.0189 14.0703 18.0189 15.2514C18.0189 15.4045 17.8947 15.5286 17.7416 15.5286Z" fill="white"/>
<path d="M22.8865 13.8806C22.8865 11.1034 20.6352 8.85205 17.858 8.85205H14.2978C11.4355 8.85205 9.11523 11.1723 9.11523 14.0346V16.2701C9.11523 18.4784 10.497 20.3628 12.4426 21.1093V22.8652C12.4426 23.0732 12.5736 23.2619 12.7685 23.3347C12.8251 23.3558 12.8841 23.366 12.9426 23.366C13.0854 23.366 13.2256 23.3051 13.3224 23.1936L14.8326 21.4527H17.8581C20.6353 21.4527 22.8866 19.2013 22.8866 16.4241V13.8806H22.8865ZM21.7159 16.4241C21.7159 18.5514 19.9853 20.282 17.8581 20.282H15.1762L13.1096 22.685C13.0826 22.7164 13.0389 22.7277 13.0001 22.7134C12.9613 22.699 12.9355 22.662 12.9355 22.6205C12.9355 22.1086 12.9355 20.9586 12.9355 20.0435C11.392 19.4845 10.286 18.0042 10.286 16.2701V14.0347C10.286 11.8225 12.0857 10.0228 14.2979 10.0228H17.8581C19.9853 10.0228 21.7159 11.7534 21.7159 13.8806V16.4241H21.7159Z" fill="white"/>
</g>
<defs>
<clipPath id="clip0_14856_154377">
<rect width="32" height="32" fill="white"/>
</clipPath>
</defs>
</svg>
