<svg width="25" height="24" viewBox="0 0 25 24" fill="none" xmlns="http://www.w3.org/2000/svg">
<g clip-path="url(#clip0_16790_11270)">
<path fill-rule="evenodd" clip-rule="evenodd" d="M12.25 2.25C6.86522 2.25 2.5 6.61522 2.5 12C2.5 17.3848 6.86522 21.75 12.25 21.75C17.6348 21.75 22 17.3848 22 12C22 6.61522 17.6348 2.25 12.25 2.25ZM0.25 12C0.25 5.37258 5.62258 0 12.25 0C18.8775 0 24.25 5.37258 24.25 12C24.25 18.6275 18.8775 24 12.25 24C5.62258 24 0.25 18.6275 0.25 12ZM13.75 16.5C13.75 17.3284 13.0784 18 12.25 18C11.4216 18 10.75 17.3284 10.75 16.5C10.75 15.6715 11.4216 15 12.25 15C13.0784 15 13.75 15.6715 13.75 16.5ZM10.6312 9.12811C10.752 8.88657 10.9155 8.67926 11.1397 8.52981C11.3568 8.38506 11.6969 8.25 12.25 8.25C12.6696 8.25 13.0794 8.37984 13.3563 8.5875C13.6031 8.77263 13.75 9.01513 13.75 9.375C13.75 9.63993 13.6888 9.77071 13.6342 9.85252C13.5662 9.95459 13.4489 10.0674 13.2197 10.2202C13.1051 10.2966 12.9818 10.3709 12.8313 10.4612L12.8221 10.4667L12.8221 10.4667C12.6815 10.551 12.5156 10.6506 12.3525 10.7593C12.0191 10.9816 11.6209 11.2907 11.3139 11.7512C10.9693 12.2682 11.109 12.9666 11.626 13.3113C12.143 13.6559 12.8415 13.5161 13.1861 12.9991C13.2541 12.897 13.3715 12.7842 13.6006 12.6314C13.7152 12.555 13.8385 12.4808 13.989 12.3905L13.9983 12.3849L13.9984 12.3848C14.1389 12.3005 14.3048 12.201 14.4678 12.0923C14.8011 11.8701 15.1994 11.5611 15.5064 11.1006C15.8269 10.6199 16 10.0476 16 9.375C16 8.23487 15.4594 7.35237 14.7062 6.7875C13.9831 6.24516 13.0804 6 12.25 6C11.3031 6 10.5182 6.23994 9.89158 6.65769C9.27201 7.07074 8.87299 7.61343 8.61877 8.12189C8.34089 8.6776 8.56615 9.35337 9.12189 9.63123C9.6776 9.90909 10.3534 9.68384 10.6312 9.12811Z" fill="#24292E"/>
</g>
<defs>
<clipPath id="clip0_16790_11270">
<rect width="24" height="24" fill="white" transform="translate(0.25)"/>
</clipPath>
</defs>
</svg>
