<svg width="24" height="25" viewBox="0 0 24 25" fill="none" xmlns="http://www.w3.org/2000/svg">
<path fill-rule="evenodd" clip-rule="evenodd" d="M0 12.5C0 5.87187 5.37187 0.5 12 0.5C18.6281 0.5 24 5.87187 24 12.5C24 19.1281 18.6281 24.5 12 24.5C5.37187 24.5 0 19.1281 0 12.5ZM16.0125 22.0016C17.2406 21.4836 18.3445 20.7383 19.2914 19.7914C20.2406 18.8445 20.9836 17.7406 21.5039 16.5125C22.0406 15.2422 22.3125 13.8922 22.3125 12.5C22.3125 11.1078 22.0406 9.75781 21.5016 8.48516C20.9836 7.25703 20.2383 6.15312 19.2914 5.20625C18.3422 4.25938 17.2406 3.51641 16.0125 2.99609C14.7422 2.45938 13.3922 2.1875 12 2.1875C10.6078 2.1875 9.25781 2.45938 7.98516 2.99844C6.75703 3.51641 5.65312 4.26172 4.70625 5.20859C3.75938 6.15781 3.01641 7.25938 2.49609 8.4875C1.95938 9.75781 1.6875 11.1078 1.6875 12.5C1.6875 13.8922 1.95938 15.2422 2.49844 16.5148C3.01641 17.743 3.76172 18.8469 4.70859 19.7938C5.65781 20.7406 6.75938 21.4836 7.9875 22.0039C9.25781 22.5406 10.6078 22.8125 12 22.8125C13.3922 22.8125 14.7422 22.5406 16.0125 22.0016ZM14.7703 17.0375H12.7734V8.83203C12.7734 8.36562 12.3961 7.98828 11.9297 7.98828H11.0859H9.67969C9.21328 7.98828 8.83594 8.36562 8.83594 8.83203C8.83594 9.29844 9.21328 9.67578 9.67969 9.67578H11.0859V17.0375H9.08906C8.62266 17.0375 8.24531 17.4148 8.24531 17.8813C8.24531 18.3477 8.62266 18.725 9.08906 18.725H11.0859H12.7734H14.7703C15.2367 18.725 15.6141 18.3477 15.6141 17.8813C15.6141 17.4148 15.2367 17.0375 14.7703 17.0375ZM11.9297 6.51172C11.4637 6.51172 11.0859 6.13396 11.0859 5.66797C11.0859 5.20198 11.4637 4.82422 11.9297 4.82422C12.3957 4.82422 12.7734 5.20198 12.7734 5.66797C12.7734 6.13396 12.3957 6.51172 11.9297 6.51172Z" fill="#EA0C0C"/>
</svg>
