<svg width="33" height="32" viewBox="0 0 33 32" fill="none" xmlns="http://www.w3.org/2000/svg">
<path d="M16.833 32C25.6696 32 32.833 24.8366 32.833 16C32.833 7.16344 25.6696 0 16.833 0C7.99645 0 0.833008 7.16344 0.833008 16C0.833008 24.8366 7.99645 32 16.833 32Z" fill="#4D76A1"/>
<path fill-rule="evenodd" clip-rule="evenodd" d="M16.2282 23.0173H17.484C17.484 23.0173 17.8634 22.9757 18.057 22.7669C18.2353 22.5752 18.2296 22.2153 18.2296 22.2153C18.2296 22.2153 18.205 20.5302 18.9871 20.2821C19.758 20.0377 20.748 21.9107 21.7973 22.6308C22.5908 23.1759 23.1937 23.0564 23.1937 23.0564L25.9994 23.0173C25.9994 23.0173 27.4671 22.9269 26.7712 21.7729C26.7142 21.6785 26.3659 20.9193 24.6851 19.3591C22.9259 17.7263 23.1615 17.9904 25.2807 15.1659C26.5713 13.4458 27.0872 12.3956 26.9261 11.9458C26.7723 11.5174 25.8231 11.6307 25.8231 11.6307L22.6641 11.6503C22.6641 11.6503 22.4299 11.6184 22.2562 11.7222C22.0865 11.824 21.9773 12.0613 21.9773 12.0613C21.9773 12.0613 21.4773 13.3924 20.8105 14.5244C19.4038 16.9131 18.8414 17.0392 18.6115 16.8909C18.0767 16.5452 18.2102 15.5022 18.2102 14.7612C18.2102 12.4464 18.5613 11.4812 17.5265 11.2314C17.1831 11.1484 16.9304 11.0936 16.0522 11.0848C14.9251 11.0731 13.971 11.0882 13.4308 11.3529C13.0715 11.5288 12.7942 11.921 12.9631 11.9435C13.1719 11.9715 13.6447 12.071 13.8954 12.4124C14.2192 12.8528 14.2078 13.8419 14.2078 13.8419C14.2078 13.8419 14.3937 16.5669 13.7734 16.9054C13.3475 17.1376 12.7634 16.6636 11.5093 14.4965C10.8667 13.3864 10.3816 12.1594 10.3816 12.1594C10.3816 12.1594 10.288 11.9301 10.1212 11.8075C9.91869 11.6589 9.63576 11.6115 9.63576 11.6115L6.63387 11.6312C6.63387 11.6312 6.18323 11.6438 6.0178 11.8397C5.87063 12.014 6.00611 12.3745 6.00611 12.3745C6.00611 12.3745 8.35628 17.8729 11.0173 20.6437C13.4574 23.1841 16.2282 23.0173 16.2282 23.0173Z" fill="white"/>
</svg>
