<svg width="33" height="32" viewBox="0 0 33 32" fill="none" xmlns="http://www.w3.org/2000/svg">
<path d="M21.602 8.51367H12.0646C10.5422 8.51367 9.30371 9.7522 9.30371 11.2745V20.812C9.30371 22.3343 10.5422 23.5732 12.0646 23.5732H21.602C23.1243 23.5732 24.3632 22.3347 24.3632 20.812V11.2745C24.3632 9.7522 23.1247 8.51367 21.602 8.51367ZM16.8333 21.0009C14.0999 21.0009 11.876 18.777 11.876 16.0433C11.876 13.3099 14.0999 11.0859 16.8333 11.0859C19.567 11.0859 21.791 13.3099 21.791 16.0433C21.791 18.7766 19.5667 21.0009 16.8333 21.0009ZM21.9503 12.1109C21.3033 12.1109 20.777 11.5847 20.777 10.938C20.777 10.2913 21.3033 9.76504 21.9503 9.76504C22.5971 9.76504 23.1233 10.2913 23.1233 10.938C23.1233 11.5847 22.5971 12.1109 21.9503 12.1109Z" fill="url(#paint0_linear_16693_6277)"/>
<path d="M16.8335 13.1807C15.2556 13.1807 13.9707 14.4648 13.9707 16.0428C13.9707 17.6214 15.2556 18.9059 16.8335 18.9059C18.4122 18.9059 19.696 17.6214 19.696 16.0428C19.696 14.4652 18.4118 13.1807 16.8335 13.1807Z" fill="#E84147"/>
<path d="M16.833 0C7.9968 0 0.833008 7.1638 0.833008 16C0.833008 24.8362 7.9968 32 16.833 32C25.6692 32 32.833 24.8362 32.833 16C32.833 7.1638 25.6692 0 16.833 0ZM26.4575 20.8119C26.4575 23.4896 24.2795 25.6676 21.6017 25.6676H12.0643C9.38685 25.6676 7.20855 23.4896 7.20855 20.8119V11.2744C7.20855 8.59698 9.38685 6.41868 12.0643 6.41868H21.6017C24.2795 6.41868 26.4575 8.59698 26.4575 11.2744V20.8119Z" fill="url(#paint1_radial_16693_6277)"/>
<defs>
<linearGradient id="paint0_linear_16693_6277" x1="10.8337" y1="24.0002" x2="23.5003" y2="8.00016" gradientUnits="userSpaceOnUse">
<stop stop-color="#E18129"/>
<stop offset="0.271436" stop-color="#F7591A"/>
<stop offset="0.953125" stop-color="#C106AF"/>
</linearGradient>
<radialGradient id="paint1_radial_16693_6277" cx="0" cy="0" r="1" gradientUnits="userSpaceOnUse" gradientTransform="translate(10.1663 27.3333) rotate(-48.8141) scale(28.3471)">
<stop stop-color="#F5DF82"/>
<stop offset="0.258556" stop-color="#DE7627"/>
<stop offset="0.489576" stop-color="#D50453"/>
<stop offset="0.716605" stop-color="#C301A5"/>
<stop offset="0.979167" stop-color="#3333E8"/>
</radialGradient>
</defs>
</svg>
