<svg width="258" height="42" viewBox="0 0 258 42" fill="none" xmlns="http://www.w3.org/2000/svg">
<g clip-path="url(#clip0_16693_6204)">
<path fill-rule="evenodd" clip-rule="evenodd" d="M28.1914 5.90869H36.0922C38.2545 5.90869 40.0059 7.6601 40.0059 9.82236V32.1755C40.0059 34.3419 38.2545 36.0933 36.0922 36.0933H13.739C12.1079 36.0933 10.7115 35.0987 10.1252 33.6802C10.999 33.5964 11.7941 33.1513 12.3246 32.438C13.0824 31.4295 13.9627 30.6698 14.9379 30.1565C18.6123 28.2411 20.8987 24.4761 20.8987 20.3309C20.8987 14.2422 15.9522 9.28391 9.86568 9.25841C10.1389 7.36358 11.7683 5.90869 13.7391 5.90869H21.6394V8.824C21.6394 9.39111 22.1034 9.8508 22.6662 9.8508H27.1646C27.7316 9.8508 28.1914 9.39111 28.1914 8.824V5.90869ZM25.4898 29.8053V32.2394C25.4898 32.5798 25.7659 32.856 26.1063 32.856H35.2037C35.5441 32.856 35.8203 32.5798 35.8203 32.2394V29.8053C35.8203 29.4649 35.5442 29.1887 35.2037 29.1887H26.1063C25.766 29.1888 25.4898 29.4649 25.4898 29.8053Z" fill="white"/>
<path fill-rule="evenodd" clip-rule="evenodd" d="M9.12047 31.0987C8.19195 29.8439 6.98726 28.8337 5.61961 28.0935C2.58312 26.4496 0.625622 23.0807 1.05219 19.2975C1.51015 15.2697 4.77273 12.0136 8.80047 11.5618C14.1395 10.9658 18.6504 15.1317 18.6504 20.3326C18.6504 23.7456 16.7243 26.6943 13.8949 28.1687C12.5648 28.8651 11.4292 29.8878 10.5258 31.0924L10.5227 31.0965C10.174 31.5667 9.4707 31.5678 9.12047 31.0987ZM9.82289 24.4763C7.53867 24.4763 5.67914 22.622 5.67914 20.3325C5.67914 18.0483 7.53875 16.1887 9.82289 16.1887C12.1126 16.1887 13.9668 18.0483 13.9668 20.3325C13.9668 22.6221 12.1126 24.4763 9.82289 24.4763Z" fill="#EA0C0C"/>
</g>
<path d="M47.4 19C47.2533 19 47.1333 18.9533 47.04 18.86C46.9467 18.7667 46.9 18.6467 46.9 18.5V5.5C46.9 5.35333 46.9467 5.23333 47.04 5.14C47.1333 5.04667 47.2533 5 47.4 5H53C54.1067 5 55.0667 5.17333 55.88 5.52C56.7067 5.85333 57.3467 6.36 57.8 7.04C58.2667 7.72 58.5 8.58 58.5 9.62C58.5 10.6467 58.2667 11.4933 57.8 12.16C57.3467 12.8267 56.7067 13.32 55.88 13.64C55.0667 13.96 54.1067 14.12 53 14.12H50.62V18.5C50.62 18.6467 50.5667 18.7667 50.46 18.86C50.3667 18.9533 50.2467 19 50.1 19H47.4ZM50.56 11.36H52.9C53.4733 11.36 53.9267 11.2133 54.26 10.92C54.6067 10.6267 54.78 10.18 54.78 9.58C54.78 9.07333 54.6333 8.64667 54.34 8.3C54.0467 7.95333 53.5667 7.78 52.9 7.78H50.56V11.36ZM67.1356 19.2C65.909 19.2 64.8423 19 63.9356 18.6C63.029 18.2 62.3223 17.6 61.8156 16.8C61.309 15.9867 61.029 14.9733 60.9756 13.76C60.9623 13.1867 60.9556 12.6133 60.9556 12.04C60.9556 11.4667 60.9623 10.8867 60.9756 10.3C61.029 9.1 61.309 8.09333 61.8156 7.28C62.3356 6.45333 63.049 5.83333 63.9556 5.42C64.8623 5.00667 65.9223 4.8 67.1356 4.8C68.3356 4.8 69.389 5.00667 70.2956 5.42C71.2156 5.83333 71.9356 6.45333 72.4556 7.28C72.9756 8.09333 73.2556 9.1 73.2956 10.3C73.3223 10.8867 73.3356 11.4667 73.3356 12.04C73.3356 12.6133 73.3223 13.1867 73.2956 13.76C73.2423 14.9733 72.9623 15.9867 72.4556 16.8C71.949 17.6 71.2423 18.2 70.3356 18.6C69.429 19 68.3623 19.2 67.1356 19.2ZM67.1356 16.32C67.8423 16.32 68.4156 16.1067 68.8556 15.68C69.309 15.2533 69.549 14.5733 69.5756 13.64C69.6023 13.0533 69.6156 12.5 69.6156 11.98C69.6156 11.46 69.6023 10.92 69.5756 10.36C69.549 9.73333 69.429 9.22667 69.2156 8.84C69.0156 8.44 68.7356 8.14667 68.3756 7.96C68.0156 7.77333 67.6023 7.68 67.1356 7.68C66.6823 7.68 66.2756 7.77333 65.9156 7.96C65.5556 8.14667 65.269 8.44 65.0556 8.84C64.8423 9.22667 64.7223 9.73333 64.6956 10.36C64.6823 10.92 64.6756 11.46 64.6756 11.98C64.6756 12.5 64.6823 13.0533 64.6956 13.64C64.7356 14.5733 64.9756 15.2533 65.4156 15.68C65.8556 16.1067 66.429 16.32 67.1356 16.32Z" fill="#EA0C0C"/>
<path d="M76.4 19C76.2533 19 76.1333 18.9533 76.04 18.86C75.9467 18.7667 75.9 18.6467 75.9 18.5V5.5C75.9 5.35333 75.9467 5.23333 76.04 5.14C76.1333 5.04667 76.2533 5 76.4 5H79.04C79.1733 5 79.2867 5.04667 79.38 5.14C79.4867 5.23333 79.54 5.35333 79.54 5.5V15.98H85.58C85.7267 15.98 85.8467 16.0333 85.94 16.14C86.0467 16.2333 86.1 16.3533 86.1 16.5V18.5C86.1 18.6467 86.0467 18.7667 85.94 18.86C85.8467 18.9533 85.7267 19 85.58 19H76.4ZM88.0336 19C87.9269 19 87.8269 18.96 87.7336 18.88C87.6536 18.7867 87.6136 18.6867 87.6136 18.58C87.6136 18.5133 87.6203 18.4533 87.6336 18.4L92.3336 5.56C92.3736 5.41333 92.4536 5.28667 92.5736 5.18C92.7069 5.06 92.8869 5 93.1136 5H96.0736C96.3003 5 96.4736 5.06 96.5936 5.18C96.7269 5.28667 96.8136 5.41333 96.8536 5.56L101.534 18.4C101.56 18.4533 101.574 18.5133 101.574 18.58C101.574 18.6867 101.527 18.7867 101.434 18.88C101.354 18.96 101.254 19 101.134 19H98.6736C98.4736 19 98.3203 18.9533 98.2136 18.86C98.1203 18.7533 98.0603 18.66 98.0336 18.58L97.2536 16.54H91.9136L91.1536 18.58C91.1269 18.66 91.0669 18.7533 90.9736 18.86C90.8803 18.9533 90.7203 19 90.4936 19H88.0336ZM92.7336 13.66H96.4536L94.5736 8.38L92.7336 13.66ZM104.65 19C104.503 19 104.383 18.9533 104.29 18.86C104.197 18.7667 104.15 18.6467 104.15 18.5V5.5C104.15 5.35333 104.197 5.23333 104.29 5.14C104.383 5.04667 104.503 5 104.65 5H106.77C106.997 5 107.157 5.05333 107.25 5.16C107.357 5.25333 107.423 5.32667 107.45 5.38L112.33 13.08V5.5C112.33 5.35333 112.377 5.23333 112.47 5.14C112.563 5.04667 112.683 5 112.83 5H115.23C115.377 5 115.497 5.04667 115.59 5.14C115.683 5.23333 115.73 5.35333 115.73 5.5V18.5C115.73 18.6333 115.683 18.7533 115.59 18.86C115.497 18.9533 115.377 19 115.23 19H113.09C112.877 19 112.717 18.9467 112.61 18.84C112.517 18.7333 112.457 18.66 112.43 18.62L107.55 11.22V18.5C107.55 18.6467 107.503 18.7667 107.41 18.86C107.317 18.9533 107.197 19 107.05 19H104.65ZM120.025 19C119.878 19 119.758 18.9533 119.665 18.86C119.572 18.7667 119.525 18.6467 119.525 18.5V5.5C119.525 5.35333 119.572 5.23333 119.665 5.14C119.758 5.04667 119.878 5 120.025 5H125.225C126.532 5 127.645 5.21333 128.565 5.64C129.485 6.05333 130.192 6.66667 130.685 7.48C131.178 8.28 131.445 9.27333 131.485 10.46C131.498 11.0467 131.505 11.56 131.505 12C131.505 12.44 131.498 12.9467 131.485 13.52C131.432 14.76 131.165 15.7867 130.685 16.6C130.218 17.4133 129.532 18.02 128.625 18.42C127.732 18.8067 126.632 19 125.325 19H120.025ZM123.105 16.12H125.225C125.798 16.12 126.272 16.0333 126.645 15.86C127.032 15.6733 127.318 15.3867 127.505 15C127.705 14.6133 127.812 14.1067 127.825 13.48C127.852 13.0933 127.865 12.7467 127.865 12.44C127.878 12.1333 127.878 11.8267 127.865 11.52C127.865 11.2133 127.852 10.8733 127.825 10.5C127.798 9.59333 127.558 8.93333 127.105 8.52C126.665 8.09333 126.005 7.88 125.125 7.88H123.105V16.12ZM134.781 19C134.635 19 134.508 18.9533 134.401 18.86C134.308 18.7667 134.261 18.6467 134.261 18.5V17.08C134.261 16.9867 134.288 16.8467 134.341 16.66C134.395 16.46 134.535 16.2733 134.761 16.1L136.841 14.06C137.908 13.2467 138.781 12.56 139.461 12C140.155 11.4267 140.668 10.92 141.001 10.48C141.335 10.04 141.501 9.62667 141.501 9.24C141.501 8.78667 141.381 8.41333 141.141 8.12C140.915 7.81333 140.515 7.66 139.941 7.66C139.555 7.66 139.228 7.74667 138.961 7.92C138.708 8.08 138.515 8.29333 138.381 8.56C138.248 8.82667 138.155 9.1 138.101 9.38C138.048 9.55333 137.955 9.67333 137.821 9.74C137.701 9.80667 137.568 9.84 137.421 9.84H134.921C134.801 9.84 134.701 9.8 134.621 9.72C134.541 9.64 134.501 9.54 134.501 9.42C134.515 8.78 134.648 8.18 134.901 7.62C135.168 7.06 135.535 6.56667 136.001 6.14C136.481 5.7 137.048 5.36 137.701 5.12C138.368 4.88 139.115 4.76 139.941 4.76C141.075 4.76 142.035 4.94 142.821 5.3C143.621 5.66 144.228 6.16667 144.641 6.82C145.055 7.46 145.261 8.21333 145.261 9.08C145.261 9.73333 145.115 10.3467 144.821 10.92C144.541 11.48 144.135 12.02 143.601 12.54C143.081 13.0467 142.461 13.5733 141.741 14.12L139.901 15.98H145.041C145.188 15.98 145.308 16.0267 145.401 16.12C145.508 16.2133 145.561 16.3333 145.561 16.48V18.5C145.561 18.6467 145.508 18.7667 145.401 18.86C145.308 18.9533 145.188 19 145.041 19H134.781ZM155.151 19C155.018 19 154.898 18.9533 154.791 18.86C154.698 18.7667 154.651 18.6467 154.651 18.5V16.24H148.431C148.298 16.24 148.178 16.1933 148.071 16.1C147.978 16.0067 147.931 15.8867 147.931 15.74V13.84C147.931 13.72 147.951 13.6133 147.991 13.52C148.044 13.4133 148.098 13.3133 148.151 13.22L153.971 5.34C154.144 5.11333 154.391 5 154.711 5H157.611C157.758 5 157.878 5.04667 157.971 5.14C158.078 5.23333 158.131 5.35333 158.131 5.5V13.26H159.891C160.051 13.26 160.178 13.3133 160.271 13.42C160.364 13.5133 160.411 13.6267 160.411 13.76V15.74C160.411 15.8867 160.358 16.0067 160.251 16.1C160.158 16.1933 160.044 16.24 159.911 16.24H158.131V18.5C158.131 18.6467 158.078 18.7667 157.971 18.86C157.878 18.9533 157.758 19 157.611 19H155.151ZM151.371 13.4H154.731V8.68L151.371 13.4ZM163.447 19C163.301 19 163.181 18.9533 163.087 18.86C162.994 18.7667 162.947 18.6467 162.947 18.5V15.96C162.947 15.8267 162.994 15.7133 163.087 15.62C163.181 15.5133 163.301 15.46 163.447 15.46H165.967C166.114 15.46 166.234 15.5133 166.327 15.62C166.434 15.7133 166.487 15.8267 166.487 15.96V18.5C166.487 18.6467 166.434 18.7667 166.327 18.86C166.234 18.9533 166.114 19 165.967 19H163.447ZM175.554 19.2C174.287 19.2 173.201 18.9933 172.294 18.58C171.401 18.1667 170.701 17.56 170.194 16.76C169.701 15.96 169.427 14.9667 169.374 13.78C169.361 13.2333 169.354 12.6467 169.354 12.02C169.354 11.3933 169.361 10.7933 169.374 10.22C169.427 9.06 169.707 8.08 170.214 7.28C170.721 6.46667 171.427 5.85333 172.334 5.44C173.241 5.01333 174.314 4.8 175.554 4.8C176.434 4.8 177.247 4.91333 177.994 5.14C178.741 5.35333 179.394 5.67333 179.954 6.1C180.514 6.51333 180.947 7.02 181.254 7.62C181.574 8.20667 181.741 8.87333 181.754 9.62C181.767 9.74 181.727 9.84 181.634 9.92C181.554 10 181.454 10.04 181.334 10.04H178.634C178.461 10.04 178.327 10.0067 178.234 9.94C178.141 9.86 178.061 9.72 177.994 9.52C177.807 8.81333 177.501 8.33333 177.074 8.08C176.661 7.81333 176.147 7.68 175.534 7.68C174.801 7.68 174.221 7.88667 173.794 8.3C173.367 8.7 173.134 9.37333 173.094 10.32C173.054 11.4133 173.054 12.5333 173.094 13.68C173.134 14.6267 173.367 15.3067 173.794 15.72C174.221 16.12 174.801 16.32 175.534 16.32C176.147 16.32 176.667 16.1867 177.094 15.92C177.521 15.6533 177.821 15.1733 177.994 14.48C178.047 14.28 178.121 14.1467 178.214 14.08C178.321 14 178.461 13.96 178.634 13.96H181.334C181.454 13.96 181.554 14 181.634 14.08C181.727 14.16 181.767 14.26 181.754 14.38C181.741 15.1267 181.574 15.8 181.254 16.4C180.947 16.9867 180.514 17.4933 179.954 17.92C179.394 18.3333 178.741 18.6533 177.994 18.88C177.247 19.0933 176.434 19.2 175.554 19.2ZM190.577 19.2C189.35 19.2 188.284 19 187.377 18.6C186.47 18.2 185.764 17.6 185.257 16.8C184.75 15.9867 184.47 14.9733 184.417 13.76C184.404 13.1867 184.397 12.6133 184.397 12.04C184.397 11.4667 184.404 10.8867 184.417 10.3C184.47 9.1 184.75 8.09333 185.257 7.28C185.777 6.45333 186.49 5.83333 187.397 5.42C188.304 5.00667 189.364 4.8 190.577 4.8C191.777 4.8 192.83 5.00667 193.737 5.42C194.657 5.83333 195.377 6.45333 195.897 7.28C196.417 8.09333 196.697 9.1 196.737 10.3C196.764 10.8867 196.777 11.4667 196.777 12.04C196.777 12.6133 196.764 13.1867 196.737 13.76C196.684 14.9733 196.404 15.9867 195.897 16.8C195.39 17.6 194.684 18.2 193.777 18.6C192.87 19 191.804 19.2 190.577 19.2ZM190.577 16.32C191.284 16.32 191.857 16.1067 192.297 15.68C192.75 15.2533 192.99 14.5733 193.017 13.64C193.044 13.0533 193.057 12.5 193.057 11.98C193.057 11.46 193.044 10.92 193.017 10.36C192.99 9.73333 192.87 9.22667 192.657 8.84C192.457 8.44 192.177 8.14667 191.817 7.96C191.457 7.77333 191.044 7.68 190.577 7.68C190.124 7.68 189.717 7.77333 189.357 7.96C188.997 8.14667 188.71 8.44 188.497 8.84C188.284 9.22667 188.164 9.73333 188.137 10.36C188.124 10.92 188.117 11.46 188.117 11.98C188.117 12.5 188.124 13.0533 188.137 13.64C188.177 14.5733 188.417 15.2533 188.857 15.68C189.297 16.1067 189.87 16.32 190.577 16.32ZM200.595 19C200.462 19 200.342 18.9533 200.235 18.86C200.142 18.7667 200.095 18.6467 200.095 18.5V5.5C200.095 5.35333 200.142 5.23333 200.235 5.14C200.342 5.04667 200.462 5 200.595 5H202.755C202.969 5 203.129 5.06 203.235 5.18C203.355 5.28667 203.429 5.37333 203.455 5.44L206.975 11.76L210.495 5.44C210.535 5.37333 210.602 5.28667 210.695 5.18C210.802 5.06 210.969 5 211.195 5H213.335C213.482 5 213.602 5.04667 213.695 5.14C213.802 5.23333 213.855 5.35333 213.855 5.5V18.5C213.855 18.6467 213.802 18.7667 213.695 18.86C213.602 18.9533 213.482 19 213.335 19H210.955C210.809 19 210.682 18.9533 210.575 18.86C210.482 18.7667 210.435 18.6467 210.435 18.5V11L208.175 15.18C208.122 15.3 208.042 15.4067 207.935 15.5C207.829 15.5933 207.682 15.64 207.495 15.64H206.455C206.269 15.64 206.122 15.5933 206.015 15.5C205.909 15.4067 205.822 15.3 205.755 15.18L203.495 11V18.5C203.495 18.6467 203.449 18.7667 203.355 18.86C203.262 18.9533 203.142 19 202.995 19H200.595ZM217.76 19C217.613 19 217.493 18.9533 217.4 18.86C217.306 18.7667 217.26 18.6467 217.26 18.5V15.96C217.26 15.8267 217.306 15.7133 217.4 15.62C217.493 15.5133 217.613 15.46 217.76 15.46H220.28C220.426 15.46 220.546 15.5133 220.64 15.62C220.746 15.7133 220.8 15.8267 220.8 15.96V18.5C220.8 18.6467 220.746 18.7667 220.64 18.86C220.546 18.9533 220.426 19 220.28 19H217.76ZM229.83 19.2C228.63 19.2 227.577 19.0067 226.67 18.62C225.777 18.22 225.084 17.6133 224.59 16.8C224.097 15.9733 223.85 14.9267 223.85 13.66V5.5C223.85 5.35333 223.897 5.23333 223.99 5.14C224.084 5.04667 224.204 5 224.35 5H226.93C227.077 5 227.197 5.04667 227.29 5.14C227.384 5.23333 227.43 5.35333 227.43 5.5V13.64C227.43 14.5067 227.637 15.16 228.05 15.6C228.477 16.0267 229.07 16.24 229.83 16.24C230.577 16.24 231.157 16.0267 231.57 15.6C231.997 15.16 232.21 14.5067 232.21 13.64V5.5C232.21 5.35333 232.257 5.23333 232.35 5.14C232.457 5.04667 232.577 5 232.71 5H235.31C235.444 5 235.557 5.04667 235.65 5.14C235.757 5.23333 235.81 5.35333 235.81 5.5V13.66C235.81 14.9267 235.564 15.9733 235.07 16.8C234.577 17.6133 233.884 18.22 232.99 18.62C232.097 19.0067 231.044 19.2 229.83 19.2ZM238.35 19C238.243 19 238.143 18.96 238.05 18.88C237.97 18.7867 237.93 18.6867 237.93 18.58C237.93 18.5133 237.937 18.4533 237.95 18.4L242.65 5.56C242.69 5.41333 242.77 5.28667 242.89 5.18C243.023 5.06 243.203 5 243.43 5H246.39C246.617 5 246.79 5.06 246.91 5.18C247.043 5.28667 247.13 5.41333 247.17 5.56L251.85 18.4C251.877 18.4533 251.89 18.5133 251.89 18.58C251.89 18.6867 251.843 18.7867 251.75 18.88C251.67 18.96 251.57 19 251.45 19H248.99C248.79 19 248.637 18.9533 248.53 18.86C248.437 18.7533 248.377 18.66 248.35 18.58L247.57 16.54H242.23L241.47 18.58C241.443 18.66 241.383 18.7533 241.29 18.86C241.197 18.9533 241.037 19 240.81 19H238.35ZM243.05 13.66H246.77L244.89 8.38L243.05 13.66Z" fill="white"/>
<path d="M50.204 36.16C49.3827 36.16 48.6947 36.0053 48.14 35.696C47.596 35.376 47.18 34.928 46.892 34.352C46.6147 33.7653 46.4653 33.088 46.444 32.32C46.4333 32 46.428 31.68 46.428 31.36C46.428 31.04 46.4333 30.72 46.444 30.4C46.444 29.4293 46.524 28.624 46.684 27.984C46.844 27.344 47.084 26.8213 47.404 26.416C47.7347 26 48.1507 25.6587 48.652 25.392C49.1533 25.1253 49.7453 24.896 50.428 24.704C51.1107 24.5013 51.8893 24.288 52.764 24.064C52.86 24.0427 52.9507 24.0587 53.036 24.112C53.132 24.1653 53.1853 24.24 53.196 24.336L53.324 24.992C53.3453 25.088 53.3293 25.1733 53.276 25.248C53.2333 25.3227 53.164 25.3707 53.068 25.392C52.268 25.5947 51.5693 25.7707 50.972 25.92C50.3747 26.0693 49.8733 26.2453 49.468 26.448C49.0627 26.64 48.7373 26.8907 48.492 27.2C48.2467 27.5093 48.076 27.92 47.98 28.432C47.8947 28.944 47.868 29.6 47.9 30.4L47.548 30.256C47.6013 29.8613 47.7667 29.504 48.044 29.184C48.332 28.8533 48.6893 28.5867 49.116 28.384C49.5427 28.1813 49.996 28.08 50.476 28.08C51.212 28.08 51.8307 28.2347 52.332 28.544C52.844 28.8533 53.2333 29.2747 53.5 29.808C53.7773 30.3413 53.932 30.9547 53.964 31.648C53.9853 32.0107 53.9853 32.3253 53.964 32.592C53.932 33.2853 53.772 33.904 53.484 34.448C53.196 34.9813 52.78 35.4027 52.236 35.712C51.692 36.0107 51.0147 36.16 50.204 36.16ZM50.204 34.976C50.876 34.976 51.4093 34.768 51.804 34.352C52.1987 33.936 52.4067 33.328 52.428 32.528C52.4387 32.4213 52.444 32.2987 52.444 32.16C52.444 32.0213 52.4387 31.8773 52.428 31.728C52.4067 30.9173 52.1987 30.304 51.804 29.888C51.42 29.472 50.9347 29.264 50.348 29.264C49.676 29.264 49.1213 29.472 48.684 29.888C48.2467 30.304 48.012 30.9173 47.98 31.728C47.9693 31.8773 47.964 32.0213 47.964 32.16C47.964 32.2987 47.9693 32.4213 47.98 32.528C48.012 33.328 48.2253 33.936 48.62 34.352C49.0147 34.768 49.5427 34.976 50.204 34.976ZM60.8489 36C60.7422 36 60.6515 35.968 60.5769 35.904C60.5129 35.8293 60.4809 35.7387 60.4809 35.632V28.048C60.4809 27.9413 60.5129 27.856 60.5769 27.792C60.6515 27.7173 60.7422 27.68 60.8489 27.68H61.6169C61.7235 27.68 61.8089 27.7173 61.8729 27.792C61.9475 27.856 61.9849 27.9413 61.9849 28.048V30.4H63.6489C64.7369 30.4 65.5315 30.656 66.0329 31.168C66.5342 31.68 66.7849 32.3733 66.7849 33.248C66.7849 34.1867 66.5075 34.88 65.9529 35.328C65.3982 35.776 64.5662 36 63.4569 36H60.8489ZM61.9689 34.8H63.5049C64.1555 34.8 64.6302 34.688 64.9289 34.464C65.2275 34.2293 65.3769 33.824 65.3769 33.248C65.3769 32.6933 65.2329 32.2827 64.9449 32.016C64.6569 31.7387 64.1769 31.6 63.5049 31.6H61.9689V34.8ZM68.2889 36C68.1822 36 68.0915 35.968 68.0169 35.904C67.9529 35.8293 67.9209 35.7387 67.9209 35.632V28.048C67.9209 27.9413 67.9529 27.856 68.0169 27.792C68.0915 27.7173 68.1822 27.68 68.2889 27.68H69.0569C69.1635 27.68 69.2489 27.7173 69.3129 27.792C69.3875 27.856 69.4249 27.9413 69.4249 28.048V35.632C69.4249 35.7387 69.3875 35.8293 69.3129 35.904C69.2489 35.968 69.1635 36 69.0569 36H68.2889ZM79.669 36.16C78.9117 36.16 78.2557 36.016 77.701 35.728C77.157 35.4293 76.7357 35.008 76.437 34.464C76.1383 33.9093 75.9783 33.248 75.957 32.48C75.9463 32.32 75.941 32.1067 75.941 31.84C75.941 31.5733 75.9463 31.36 75.957 31.2C75.9783 30.432 76.1383 29.776 76.437 29.232C76.7357 28.6773 77.157 28.256 77.701 27.968C78.2557 27.6693 78.9117 27.52 79.669 27.52C80.2877 27.52 80.8157 27.6053 81.253 27.776C81.701 27.9467 82.069 28.1653 82.357 28.432C82.645 28.6987 82.8583 28.9867 82.997 29.296C83.1463 29.6053 83.2263 29.8987 83.237 30.176C83.2477 30.2827 83.2157 30.368 83.141 30.432C83.0663 30.496 82.9757 30.528 82.869 30.528H82.101C81.9943 30.528 81.9143 30.5067 81.861 30.464C81.8077 30.4107 81.7543 30.3253 81.701 30.208C81.509 29.6853 81.2477 29.3173 80.917 29.104C80.5863 28.8907 80.1757 28.784 79.685 28.784C79.045 28.784 78.5223 28.9813 78.117 29.376C77.7223 29.7707 77.509 30.4053 77.477 31.28C77.4663 31.664 77.4663 32.0373 77.477 32.4C77.509 33.2853 77.7223 33.9253 78.117 34.32C78.5223 34.704 79.045 34.896 79.685 34.896C80.1757 34.896 80.5863 34.7893 80.917 34.576C81.2477 34.3627 81.509 33.9947 81.701 33.472C81.7543 33.3547 81.8077 33.2747 81.861 33.232C81.9143 33.1787 81.9943 33.152 82.101 33.152H82.869C82.9757 33.152 83.0663 33.184 83.141 33.248C83.2157 33.312 83.2477 33.3973 83.237 33.504C83.2263 33.728 83.1783 33.9573 83.093 34.192C83.0077 34.4267 82.869 34.6667 82.677 34.912C82.4957 35.1467 82.2663 35.36 81.989 35.552C81.7117 35.7333 81.3757 35.8827 80.981 36C80.597 36.1067 80.1597 36.16 79.669 36.16ZM92.1811 36C92.0745 36 91.9838 35.968 91.9091 35.904C91.8451 35.8293 91.8131 35.7387 91.8131 35.632V28.96H89.0291C88.9225 28.96 88.8318 28.928 88.7571 28.864C88.6931 28.7893 88.6611 28.6987 88.6611 28.592V28.048C88.6611 27.9413 88.6931 27.856 88.7571 27.792C88.8318 27.7173 88.9225 27.68 89.0291 27.68H96.0691C96.1758 27.68 96.2611 27.7173 96.3251 27.792C96.3998 27.856 96.4371 27.9413 96.4371 28.048V28.592C96.4371 28.6987 96.3998 28.7893 96.3251 28.864C96.2611 28.928 96.1758 28.96 96.0691 28.96H93.2851V35.632C93.2851 35.7387 93.2531 35.8293 93.1891 35.904C93.1251 35.968 93.0345 36 92.9171 36H92.1811ZM102.709 39.04C102.602 39.04 102.511 39.0027 102.437 38.928C102.373 38.864 102.341 38.7787 102.341 38.672V28.048C102.341 27.9413 102.373 27.856 102.437 27.792C102.511 27.7173 102.602 27.68 102.709 27.68H103.445C103.551 27.68 103.637 27.7173 103.701 27.792C103.775 27.856 103.813 27.9413 103.813 28.048V28.752C104.069 28.4 104.41 28.1067 104.837 27.872C105.263 27.6373 105.797 27.52 106.437 27.52C107.034 27.52 107.541 27.6213 107.957 27.824C108.383 28.0267 108.73 28.304 108.997 28.656C109.274 29.008 109.482 29.408 109.621 29.856C109.759 30.304 109.834 30.784 109.845 31.296C109.855 31.4667 109.861 31.648 109.861 31.84C109.861 32.032 109.855 32.2133 109.845 32.384C109.834 32.8853 109.759 33.3653 109.621 33.824C109.482 34.272 109.274 34.672 108.997 35.024C108.73 35.3653 108.383 35.6427 107.957 35.856C107.541 36.0587 107.034 36.16 106.437 36.16C105.818 36.16 105.295 36.048 104.869 35.824C104.453 35.5893 104.111 35.3013 103.845 34.96V38.672C103.845 38.7787 103.813 38.864 103.749 38.928C103.685 39.0027 103.594 39.04 103.477 39.04H102.709ZM106.101 34.864C106.655 34.864 107.087 34.7467 107.397 34.512C107.717 34.2667 107.946 33.952 108.085 33.568C108.223 33.1733 108.303 32.752 108.325 32.304C108.335 31.9947 108.335 31.6853 108.325 31.376C108.303 30.928 108.223 30.512 108.085 30.128C107.946 29.7333 107.717 29.4187 107.397 29.184C107.087 28.9387 106.655 28.816 106.101 28.816C105.578 28.816 105.151 28.9387 104.821 29.184C104.501 29.4293 104.261 29.744 104.101 30.128C103.951 30.5013 103.866 30.8853 103.845 31.28C103.834 31.4507 103.829 31.6533 103.829 31.888C103.829 32.1227 103.834 32.3307 103.845 32.512C103.855 32.8853 103.941 33.2533 104.101 33.616C104.271 33.9787 104.522 34.2773 104.853 34.512C105.183 34.7467 105.599 34.864 106.101 34.864ZM118.676 36.16C118.143 36.16 117.657 36.0533 117.22 35.84C116.783 35.6267 116.431 35.3387 116.164 34.976C115.897 34.6133 115.764 34.2027 115.764 33.744C115.764 33.008 116.063 32.4213 116.66 31.984C117.257 31.5467 118.036 31.2587 118.996 31.12L121.38 30.784V30.32C121.38 29.808 121.231 29.408 120.932 29.12C120.644 28.832 120.169 28.688 119.508 28.688C119.028 28.688 118.639 28.784 118.34 28.976C118.052 29.168 117.849 29.4133 117.732 29.712C117.668 29.872 117.556 29.952 117.396 29.952H116.676C116.559 29.952 116.468 29.92 116.404 29.856C116.351 29.7813 116.324 29.696 116.324 29.6C116.324 29.44 116.383 29.2427 116.5 29.008C116.628 28.7733 116.82 28.544 117.076 28.32C117.332 28.096 117.657 27.9093 118.052 27.76C118.457 27.6 118.948 27.52 119.524 27.52C120.164 27.52 120.703 27.6053 121.14 27.776C121.577 27.936 121.919 28.1547 122.164 28.432C122.42 28.7093 122.601 29.024 122.708 29.376C122.825 29.728 122.884 30.0853 122.884 30.448V35.632C122.884 35.7387 122.847 35.8293 122.772 35.904C122.708 35.968 122.623 36 122.516 36H121.78C121.663 36 121.572 35.968 121.508 35.904C121.444 35.8293 121.412 35.7387 121.412 35.632V34.944C121.273 35.136 121.087 35.328 120.852 35.52C120.617 35.7013 120.324 35.856 119.972 35.984C119.62 36.1013 119.188 36.16 118.676 36.16ZM119.012 34.96C119.449 34.96 119.849 34.8693 120.212 34.688C120.575 34.496 120.857 34.2027 121.06 33.808C121.273 33.4133 121.38 32.9173 121.38 32.32V31.872L119.524 32.144C118.767 32.2507 118.196 32.432 117.812 32.688C117.428 32.9333 117.236 33.248 117.236 33.632C117.236 33.9307 117.321 34.1813 117.492 34.384C117.673 34.576 117.897 34.72 118.164 34.816C118.441 34.912 118.724 34.96 119.012 34.96ZM134.868 36C134.751 36 134.66 35.968 134.596 35.904C134.532 35.8293 134.5 35.7387 134.5 35.632V33.024H132.66V32.944C131.657 32.944 130.911 32.6987 130.42 32.208C129.94 31.7067 129.7 31.072 129.7 30.304C129.7 29.408 129.961 28.7467 130.484 28.32C131.017 27.8933 131.817 27.68 132.884 27.68H135.636C135.743 27.68 135.828 27.7173 135.892 27.792C135.967 27.856 136.004 27.9413 136.004 28.048V35.632C136.004 35.7387 135.967 35.8293 135.892 35.904C135.828 35.968 135.743 36 135.636 36H134.868ZM129.796 36C129.7 36 129.62 35.968 129.556 35.904C129.492 35.84 129.46 35.7653 129.46 35.68C129.46 35.6373 129.465 35.5947 129.476 35.552C129.497 35.4987 129.529 35.4453 129.572 35.392L131.476 32.576L133.012 32.688L130.98 35.76C130.937 35.8133 130.879 35.8667 130.804 35.92C130.729 35.9733 130.649 36 130.564 36H129.796ZM132.708 31.824H134.516V28.88H132.836C132.239 28.88 131.796 28.9867 131.508 29.2C131.231 29.4027 131.092 29.7707 131.092 30.304C131.092 30.7413 131.22 31.104 131.476 31.392C131.743 31.68 132.153 31.824 132.708 31.824ZM150.829 37.76C150.722 37.76 150.632 37.7227 150.557 37.648C150.493 37.584 150.461 37.4987 150.461 37.392V35.088C150.461 34.9813 150.493 34.896 150.557 34.832C150.632 34.7573 150.722 34.72 150.829 34.72H150.909C151.197 34.7093 151.442 34.5493 151.645 34.24C151.848 33.92 152.002 33.424 152.109 32.752C152.216 32.0693 152.269 31.184 152.269 30.096V28.048C152.269 27.9413 152.301 27.856 152.365 27.792C152.44 27.7173 152.53 27.68 152.637 27.68H157.741C157.848 27.68 157.933 27.7173 157.997 27.792C158.072 27.856 158.109 27.9413 158.109 28.048V34.688H158.861C158.978 34.688 159.069 34.7253 159.133 34.8C159.197 34.864 159.229 34.9493 159.229 35.056V37.392C159.229 37.4987 159.197 37.584 159.133 37.648C159.069 37.7227 158.978 37.76 158.861 37.76H158.109C158.002 37.76 157.912 37.7227 157.837 37.648C157.773 37.584 157.741 37.4987 157.741 37.392V36H151.949V37.392C151.949 37.4987 151.912 37.584 151.837 37.648C151.773 37.7227 151.688 37.76 151.581 37.76H150.829ZM152.813 34.72L156.621 34.688V28.96H153.725V30.272C153.725 31.4027 153.645 32.3307 153.485 33.056C153.325 33.7707 153.101 34.3253 152.813 34.72ZM168.811 36.16C168 36.16 167.323 36.0053 166.779 35.696C166.235 35.3867 165.819 34.96 165.531 34.416C165.243 33.8613 165.083 33.232 165.051 32.528C165.04 32.3467 165.035 32.1173 165.035 31.84C165.035 31.552 165.04 31.3227 165.051 31.152C165.083 30.4373 165.243 29.808 165.531 29.264C165.829 28.72 166.251 28.2933 166.795 27.984C167.339 27.6747 168.011 27.52 168.811 27.52C169.611 27.52 170.283 27.6747 170.827 27.984C171.371 28.2933 171.787 28.72 172.075 29.264C172.373 29.808 172.539 30.4373 172.571 31.152C172.581 31.3227 172.587 31.552 172.587 31.84C172.587 32.1173 172.581 32.3467 172.571 32.528C172.539 33.232 172.379 33.8613 172.091 34.416C171.803 34.96 171.387 35.3867 170.843 35.696C170.299 36.0053 169.621 36.16 168.811 36.16ZM168.811 34.928C169.472 34.928 170 34.72 170.395 34.304C170.789 33.8773 171.003 33.2587 171.035 32.448C171.045 32.288 171.051 32.0853 171.051 31.84C171.051 31.5947 171.045 31.392 171.035 31.232C171.003 30.4213 170.789 29.808 170.395 29.392C170 28.9653 169.472 28.752 168.811 28.752C168.149 28.752 167.616 28.9653 167.211 29.392C166.816 29.808 166.608 30.4213 166.587 31.232C166.576 31.392 166.571 31.5947 166.571 31.84C166.571 32.0853 166.576 32.288 166.587 32.448C166.608 33.2587 166.816 33.8773 167.211 34.304C167.616 34.72 168.149 34.928 168.811 34.928ZM182.45 36.16C181.693 36.16 181.037 36.016 180.482 35.728C179.938 35.4293 179.517 35.008 179.218 34.464C178.92 33.9093 178.76 33.248 178.738 32.48C178.728 32.32 178.722 32.1067 178.722 31.84C178.722 31.5733 178.728 31.36 178.738 31.2C178.76 30.432 178.92 29.776 179.218 29.232C179.517 28.6773 179.938 28.256 180.482 27.968C181.037 27.6693 181.693 27.52 182.45 27.52C183.069 27.52 183.597 27.6053 184.034 27.776C184.482 27.9467 184.85 28.1653 185.138 28.432C185.426 28.6987 185.64 28.9867 185.778 29.296C185.928 29.6053 186.008 29.8987 186.018 30.176C186.029 30.2827 185.997 30.368 185.922 30.432C185.848 30.496 185.757 30.528 185.65 30.528H184.882C184.776 30.528 184.696 30.5067 184.642 30.464C184.589 30.4107 184.536 30.3253 184.482 30.208C184.29 29.6853 184.029 29.3173 183.698 29.104C183.368 28.8907 182.957 28.784 182.466 28.784C181.826 28.784 181.304 28.9813 180.898 29.376C180.504 29.7707 180.29 30.4053 180.258 31.28C180.248 31.664 180.248 32.0373 180.258 32.4C180.29 33.2853 180.504 33.9253 180.898 34.32C181.304 34.704 181.826 34.896 182.466 34.896C182.957 34.896 183.368 34.7893 183.698 34.576C184.029 34.3627 184.29 33.9947 184.482 33.472C184.536 33.3547 184.589 33.2747 184.642 33.232C184.696 33.1787 184.776 33.152 184.882 33.152H185.65C185.757 33.152 185.848 33.184 185.922 33.248C185.997 33.312 186.029 33.3973 186.018 33.504C186.008 33.728 185.96 33.9573 185.874 34.192C185.789 34.4267 185.65 34.6667 185.458 34.912C185.277 35.1467 185.048 35.36 184.77 35.552C184.493 35.7333 184.157 35.8827 183.762 36C183.378 36.1067 182.941 36.16 182.45 36.16ZM194.962 36C194.856 36 194.765 35.968 194.69 35.904C194.626 35.8293 194.594 35.7387 194.594 35.632V28.96H191.81C191.704 28.96 191.613 28.928 191.538 28.864C191.474 28.7893 191.442 28.6987 191.442 28.592V28.048C191.442 27.9413 191.474 27.856 191.538 27.792C191.613 27.7173 191.704 27.68 191.81 27.68H198.85C198.957 27.68 199.042 27.7173 199.106 27.792C199.181 27.856 199.218 27.9413 199.218 28.048V28.592C199.218 28.6987 199.181 28.7893 199.106 28.864C199.042 28.928 198.957 28.96 198.85 28.96H196.066V35.632C196.066 35.7387 196.034 35.8293 195.97 35.904C195.906 35.968 195.816 36 195.698 36H194.962ZM207.426 36.16C206.893 36.16 206.407 36.0533 205.97 35.84C205.533 35.6267 205.181 35.3387 204.914 34.976C204.647 34.6133 204.514 34.2027 204.514 33.744C204.514 33.008 204.813 32.4213 205.41 31.984C206.007 31.5467 206.786 31.2587 207.746 31.12L210.13 30.784V30.32C210.13 29.808 209.981 29.408 209.682 29.12C209.394 28.832 208.919 28.688 208.258 28.688C207.778 28.688 207.389 28.784 207.09 28.976C206.802 29.168 206.599 29.4133 206.482 29.712C206.418 29.872 206.306 29.952 206.146 29.952H205.426C205.309 29.952 205.218 29.92 205.154 29.856C205.101 29.7813 205.074 29.696 205.074 29.6C205.074 29.44 205.133 29.2427 205.25 29.008C205.378 28.7733 205.57 28.544 205.826 28.32C206.082 28.096 206.407 27.9093 206.802 27.76C207.207 27.6 207.698 27.52 208.274 27.52C208.914 27.52 209.453 27.6053 209.89 27.776C210.327 27.936 210.669 28.1547 210.914 28.432C211.17 28.7093 211.351 29.024 211.458 29.376C211.575 29.728 211.634 30.0853 211.634 30.448V35.632C211.634 35.7387 211.597 35.8293 211.522 35.904C211.458 35.968 211.373 36 211.266 36H210.53C210.413 36 210.322 35.968 210.258 35.904C210.194 35.8293 210.162 35.7387 210.162 35.632V34.944C210.023 35.136 209.837 35.328 209.602 35.52C209.367 35.7013 209.074 35.856 208.722 35.984C208.37 36.1013 207.938 36.16 207.426 36.16ZM207.762 34.96C208.199 34.96 208.599 34.8693 208.962 34.688C209.325 34.496 209.607 34.2027 209.81 33.808C210.023 33.4133 210.13 32.9173 210.13 32.32V31.872L208.274 32.144C207.517 32.2507 206.946 32.432 206.562 32.688C206.178 32.9333 205.986 33.248 205.986 33.632C205.986 33.9307 206.071 34.1813 206.242 34.384C206.423 34.576 206.647 34.72 206.914 34.816C207.191 34.912 207.474 34.96 207.762 34.96ZM218.802 36C218.695 36 218.605 35.968 218.53 35.904C218.466 35.8293 218.434 35.7387 218.434 35.632V28.048C218.434 27.9413 218.466 27.856 218.53 27.792C218.605 27.7173 218.695 27.68 218.802 27.68H222.13C223.133 27.68 223.885 27.8827 224.386 28.288C224.898 28.6933 225.154 29.2373 225.154 29.92C225.154 30.4 225.063 30.7627 224.882 31.008C224.701 31.2533 224.445 31.4613 224.114 31.632C224.519 31.8027 224.823 32.08 225.026 32.464C225.239 32.8373 225.346 33.2267 225.346 33.632C225.346 34.4 225.074 34.9867 224.53 35.392C223.986 35.7973 223.229 36 222.258 36H218.802ZM219.906 34.832H222.13C222.642 34.832 223.053 34.736 223.362 34.544C223.682 34.3413 223.842 34.0373 223.842 33.632C223.842 33.2053 223.698 32.896 223.41 32.704C223.122 32.5013 222.695 32.4 222.13 32.4H219.906V34.832ZM219.906 31.216H222.034C222.546 31.216 222.951 31.104 223.25 30.88C223.559 30.656 223.714 30.3413 223.714 29.936C223.714 29.52 223.559 29.2373 223.25 29.088C222.951 28.928 222.546 28.848 222.034 28.848H219.906V31.216ZM232.271 36C232.164 36 232.073 35.968 231.999 35.904C231.935 35.8293 231.903 35.7387 231.903 35.632V28.048C231.903 27.9413 231.935 27.856 231.999 27.792C232.073 27.7173 232.164 27.68 232.271 27.68H233.023C233.129 27.68 233.215 27.7173 233.279 27.792C233.353 27.856 233.391 27.9413 233.391 28.048V31.12H234.847L237.007 27.92C237.06 27.8453 237.119 27.7867 237.183 27.744C237.247 27.7013 237.332 27.68 237.439 27.68H238.271C238.367 27.68 238.447 27.7013 238.511 27.744C238.575 27.7867 238.607 27.8507 238.607 27.936C238.607 27.9573 238.596 27.9893 238.575 28.032C238.564 28.064 238.548 28.096 238.527 28.128L236.127 31.664L238.847 35.536C238.9 35.6 238.927 35.6693 238.927 35.744C238.927 35.8293 238.895 35.8933 238.831 35.936C238.777 35.9787 238.703 36 238.607 36H237.631C237.535 36 237.455 35.9787 237.391 35.936C237.327 35.8933 237.268 35.8347 237.215 35.76L234.863 32.416H233.391V35.632C233.391 35.7387 233.353 35.8293 233.279 35.904C233.215 35.968 233.129 36 233.023 36H232.271ZM247.301 36.16C246.768 36.16 246.282 36.0533 245.845 35.84C245.408 35.6267 245.056 35.3387 244.789 34.976C244.522 34.6133 244.389 34.2027 244.389 33.744C244.389 33.008 244.688 32.4213 245.285 31.984C245.882 31.5467 246.661 31.2587 247.621 31.12L250.005 30.784V30.32C250.005 29.808 249.856 29.408 249.557 29.12C249.269 28.832 248.794 28.688 248.133 28.688C247.653 28.688 247.264 28.784 246.965 28.976C246.677 29.168 246.474 29.4133 246.357 29.712C246.293 29.872 246.181 29.952 246.021 29.952H245.301C245.184 29.952 245.093 29.92 245.029 29.856C244.976 29.7813 244.949 29.696 244.949 29.6C244.949 29.44 245.008 29.2427 245.125 29.008C245.253 28.7733 245.445 28.544 245.701 28.32C245.957 28.096 246.282 27.9093 246.677 27.76C247.082 27.6 247.573 27.52 248.149 27.52C248.789 27.52 249.328 27.6053 249.765 27.776C250.202 27.936 250.544 28.1547 250.789 28.432C251.045 28.7093 251.226 29.024 251.333 29.376C251.45 29.728 251.509 30.0853 251.509 30.448V35.632C251.509 35.7387 251.472 35.8293 251.397 35.904C251.333 35.968 251.248 36 251.141 36H250.405C250.288 36 250.197 35.968 250.133 35.904C250.069 35.8293 250.037 35.7387 250.037 35.632V34.944C249.898 35.136 249.712 35.328 249.477 35.52C249.242 35.7013 248.949 35.856 248.597 35.984C248.245 36.1013 247.813 36.16 247.301 36.16ZM247.637 34.96C248.074 34.96 248.474 34.8693 248.837 34.688C249.2 34.496 249.482 34.2027 249.685 33.808C249.898 33.4133 250.005 32.9173 250.005 32.32V31.872L248.149 32.144C247.392 32.2507 246.821 32.432 246.437 32.688C246.053 32.9333 245.861 33.248 245.861 33.632C245.861 33.9307 245.946 34.1813 246.117 34.384C246.298 34.576 246.522 34.72 246.789 34.816C247.066 34.912 247.349 34.96 247.637 34.96Z" fill="white" fill-opacity="0.7"/>
<defs>
<clipPath id="clip0_16693_6204">
<rect width="40" height="40" fill="white" transform="matrix(-1 0 0 1 40.5 1)"/>
</clipPath>
</defs>
</svg>
