<svg width="224" height="52" viewBox="0 0 224 52" fill="none" xmlns="http://www.w3.org/2000/svg">
<rect width="223.5" height="52" rx="8" fill="#EA0C0C"/>
<path d="M92 17.5L89.5 21.25C89 20.9842 88 20.4999 86.75 20.4999C83.75 20.4999 81.25 23 81.25 25.75C81.25 28.5 83.25 31.5003 86.75 31.5003C89.55 31.5003 91.5 29.5002 91.5 28.0002H86.75V24.5001C90.25 24.5001 96.75 24.5 96.75 24.5C97 28.2501 95.8948 30.4502 94.5 32.25C92.4121 34.944 89.3356 36.0001 86.75 36.0001C81.75 36.0001 76.75 32.0003 76.75 25.75C76.75 19.75 82.1118 16 86.25 16C90.3882 16 92 17.5 92 17.5Z" fill="white"/>
<path d="M113.776 31.14C112.889 31.14 112.124 30.9953 111.48 30.706C110.845 30.4073 110.351 29.978 109.996 29.418C109.651 28.8487 109.459 28.158 109.422 27.346C109.413 26.9447 109.408 26.52 109.408 26.072C109.408 25.6147 109.413 25.1807 109.422 24.77C109.459 23.9767 109.655 23.3047 110.01 22.754C110.365 22.2033 110.864 21.7833 111.508 21.494C112.152 21.2047 112.908 21.06 113.776 21.06C114.476 21.06 115.097 21.1487 115.638 21.326C116.179 21.494 116.632 21.7227 116.996 22.012C117.369 22.3013 117.649 22.6187 117.836 22.964C118.032 23.3093 118.135 23.65 118.144 23.986C118.153 24.07 118.125 24.14 118.06 24.196C118.004 24.252 117.934 24.28 117.85 24.28H115.806C115.703 24.28 115.624 24.266 115.568 24.238C115.521 24.2007 115.479 24.1493 115.442 24.084C115.377 23.944 115.279 23.7993 115.148 23.65C115.027 23.4913 114.854 23.356 114.63 23.244C114.415 23.132 114.131 23.076 113.776 23.076C113.244 23.076 112.824 23.216 112.516 23.496C112.217 23.776 112.054 24.224 112.026 24.84C111.998 25.6427 111.998 26.4547 112.026 27.276C112.054 27.9293 112.227 28.4007 112.544 28.69C112.861 28.9793 113.281 29.124 113.804 29.124C114.159 29.124 114.471 29.0633 114.742 28.942C115.022 28.8207 115.241 28.634 115.4 28.382C115.559 28.1207 115.638 27.7893 115.638 27.388V27.122H114.322C114.219 27.122 114.131 27.0893 114.056 27.024C113.991 26.9493 113.958 26.8607 113.958 26.758V25.722C113.958 25.6193 113.991 25.5353 114.056 25.47C114.131 25.3953 114.219 25.358 114.322 25.358H117.85C117.953 25.358 118.037 25.3953 118.102 25.47C118.167 25.5353 118.2 25.6193 118.2 25.722V27.318C118.2 28.1207 118.018 28.8067 117.654 29.376C117.29 29.9453 116.772 30.384 116.1 30.692C115.437 30.9907 114.663 31.14 113.776 31.14ZM123.096 31.14C122.312 31.14 121.65 31.014 121.108 30.762C120.576 30.51 120.166 30.1507 119.876 29.684C119.596 29.208 119.438 28.6433 119.4 27.99C119.391 27.8033 119.386 27.5933 119.386 27.36C119.386 27.1173 119.391 26.9073 119.4 26.73C119.438 26.0673 119.606 25.5027 119.904 25.036C120.203 24.5693 120.618 24.21 121.15 23.958C121.692 23.706 122.34 23.58 123.096 23.58C123.862 23.58 124.51 23.706 125.042 23.958C125.584 24.21 126.004 24.5693 126.302 25.036C126.601 25.5027 126.769 26.0673 126.806 26.73C126.816 26.9073 126.82 27.1173 126.82 27.36C126.82 27.5933 126.816 27.8033 126.806 27.99C126.769 28.6433 126.606 29.208 126.316 29.684C126.036 30.1507 125.626 30.51 125.084 30.762C124.552 31.014 123.89 31.14 123.096 31.14ZM123.096 29.432C123.516 29.432 123.82 29.306 124.006 29.054C124.202 28.802 124.314 28.424 124.342 27.92C124.352 27.78 124.356 27.5933 124.356 27.36C124.356 27.1267 124.352 26.94 124.342 26.8C124.314 26.3053 124.202 25.932 124.006 25.68C123.82 25.4187 123.516 25.288 123.096 25.288C122.686 25.288 122.382 25.4187 122.186 25.68C121.99 25.932 121.883 26.3053 121.864 26.8C121.855 26.94 121.85 27.1267 121.85 27.36C121.85 27.5933 121.855 27.78 121.864 27.92C121.883 28.424 121.99 28.802 122.186 29.054C122.382 29.306 122.686 29.432 123.096 29.432ZM131.641 31.14C130.857 31.14 130.194 31.014 129.653 30.762C129.121 30.51 128.71 30.1507 128.421 29.684C128.141 29.208 127.982 28.6433 127.945 27.99C127.936 27.8033 127.931 27.5933 127.931 27.36C127.931 27.1173 127.936 26.9073 127.945 26.73C127.982 26.0673 128.15 25.5027 128.449 25.036C128.748 24.5693 129.163 24.21 129.695 23.958C130.236 23.706 130.885 23.58 131.641 23.58C132.406 23.58 133.055 23.706 133.587 23.958C134.128 24.21 134.548 24.5693 134.847 25.036C135.146 25.5027 135.314 26.0673 135.351 26.73C135.36 26.9073 135.365 27.1173 135.365 27.36C135.365 27.5933 135.36 27.8033 135.351 27.99C135.314 28.6433 135.15 29.208 134.861 29.684C134.581 30.1507 134.17 30.51 133.629 30.762C133.097 31.014 132.434 31.14 131.641 31.14ZM131.641 29.432C132.061 29.432 132.364 29.306 132.551 29.054C132.747 28.802 132.859 28.424 132.887 27.92C132.896 27.78 132.901 27.5933 132.901 27.36C132.901 27.1267 132.896 26.94 132.887 26.8C132.859 26.3053 132.747 25.932 132.551 25.68C132.364 25.4187 132.061 25.288 131.641 25.288C131.23 25.288 130.927 25.4187 130.731 25.68C130.535 25.932 130.428 26.3053 130.409 26.8C130.4 26.94 130.395 27.1267 130.395 27.36C130.395 27.5933 130.4 27.78 130.409 27.92C130.428 28.424 130.535 28.802 130.731 29.054C130.927 29.306 131.23 29.432 131.641 29.432ZM137.092 31C136.989 31 136.905 30.9673 136.84 30.902C136.775 30.8367 136.742 30.7527 136.742 30.65V21.41C136.742 21.3073 136.775 21.2233 136.84 21.158C136.905 21.0927 136.989 21.06 137.092 21.06H138.744C138.847 21.06 138.931 21.0927 138.996 21.158C139.061 21.2233 139.094 21.3073 139.094 21.41V30.65C139.094 30.7527 139.061 30.8367 138.996 30.902C138.931 30.9673 138.847 31 138.744 31H137.092ZM144.108 31.14C143.007 31.14 142.129 30.8413 141.476 30.244C140.823 29.6467 140.482 28.76 140.454 27.584C140.454 27.5187 140.454 27.4347 140.454 27.332C140.454 27.2293 140.454 27.15 140.454 27.094C140.482 26.3567 140.645 25.7267 140.944 25.204C141.252 24.672 141.672 24.2707 142.204 24C142.745 23.72 143.375 23.58 144.094 23.58C144.915 23.58 145.592 23.7433 146.124 24.07C146.665 24.3967 147.071 24.84 147.342 25.4C147.613 25.96 147.748 26.5993 147.748 27.318V27.654C147.748 27.7567 147.711 27.8407 147.636 27.906C147.571 27.9713 147.491 28.004 147.398 28.004H142.918C142.918 28.0133 142.918 28.0273 142.918 28.046C142.918 28.0647 142.918 28.0833 142.918 28.102C142.927 28.3727 142.974 28.62 143.058 28.844C143.142 29.068 143.273 29.2453 143.45 29.376C143.627 29.5067 143.842 29.572 144.094 29.572C144.281 29.572 144.435 29.544 144.556 29.488C144.687 29.4227 144.794 29.3527 144.878 29.278C144.962 29.194 145.027 29.124 145.074 29.068C145.158 28.9747 145.223 28.9187 145.27 28.9C145.326 28.872 145.41 28.858 145.522 28.858H147.258C147.351 28.858 147.426 28.886 147.482 28.942C147.547 28.9887 147.575 29.0587 147.566 29.152C147.557 29.3107 147.477 29.502 147.328 29.726C147.179 29.95 146.959 30.174 146.67 30.398C146.39 30.6127 146.035 30.79 145.606 30.93C145.177 31.07 144.677 31.14 144.108 31.14ZM142.918 26.618H145.284V26.59C145.284 26.2913 145.237 26.03 145.144 25.806C145.06 25.582 144.925 25.4093 144.738 25.288C144.561 25.1667 144.346 25.106 144.094 25.106C143.842 25.106 143.627 25.1667 143.45 25.288C143.282 25.4093 143.151 25.582 143.058 25.806C142.965 26.03 142.918 26.2913 142.918 26.59V26.618Z" fill="white"/>
</svg>
