<svg width="224" height="52" viewBox="0 0 224 52" fill="none" xmlns="http://www.w3.org/2000/svg">
<rect x="0.5" width="223.5" height="52" rx="8" fill="#2F80ED"/>
<path d="M76.3704 19.32H78.2504V16.14C77.3401 16.0454 76.4255 15.9986 75.5104 16C72.7904 16 70.9304 17.66 70.9304 20.7V23.32H67.8604V26.88H70.9304V36H74.6104V26.88H77.6704L78.1304 23.32H74.6104V21.05C74.6104 20 74.8904 19.32 76.3704 19.32Z" fill="white"/>
<path d="M96.58 31C96.4773 31 96.3933 30.9673 96.328 30.902C96.2627 30.8367 96.23 30.7527 96.23 30.65V21.55C96.23 21.4473 96.2627 21.3633 96.328 21.298C96.3933 21.2327 96.4773 21.2 96.58 21.2H103.006C103.109 21.2 103.193 21.2327 103.258 21.298C103.333 21.3633 103.37 21.4473 103.37 21.55V22.964C103.37 23.0667 103.333 23.1507 103.258 23.216C103.193 23.2813 103.109 23.314 103.006 23.314H98.694V25.372H102.726C102.829 25.372 102.913 25.4093 102.978 25.484C103.053 25.5493 103.09 25.6333 103.09 25.736V27.136C103.09 27.2293 103.053 27.3133 102.978 27.388C102.913 27.4533 102.829 27.486 102.726 27.486H98.694V30.65C98.694 30.7527 98.6613 30.8367 98.596 30.902C98.5307 30.9673 98.4467 31 98.344 31H96.58ZM106.614 31.14C106.11 31.14 105.657 31.0467 105.256 30.86C104.864 30.664 104.551 30.4027 104.318 30.076C104.084 29.7493 103.968 29.3807 103.968 28.97C103.968 28.3073 104.238 27.7847 104.78 27.402C105.321 27.01 106.04 26.744 106.936 26.604L108.686 26.338V26.142C108.686 25.806 108.616 25.5493 108.476 25.372C108.336 25.1947 108.079 25.106 107.706 25.106C107.444 25.106 107.23 25.1573 107.062 25.26C106.903 25.3627 106.777 25.5027 106.684 25.68C106.6 25.8013 106.483 25.862 106.334 25.862H104.766C104.663 25.862 104.584 25.834 104.528 25.778C104.472 25.7127 104.448 25.638 104.458 25.554C104.458 25.386 104.518 25.1947 104.64 24.98C104.77 24.756 104.966 24.5367 105.228 24.322C105.489 24.1073 105.825 23.93 106.236 23.79C106.646 23.65 107.141 23.58 107.72 23.58C108.326 23.58 108.844 23.65 109.274 23.79C109.703 23.93 110.048 24.126 110.31 24.378C110.58 24.63 110.781 24.9287 110.912 25.274C111.042 25.61 111.108 25.9833 111.108 26.394V30.65C111.108 30.7527 111.07 30.8367 110.996 30.902C110.93 30.9673 110.851 31 110.758 31H109.134C109.031 31 108.947 30.9673 108.882 30.902C108.816 30.8367 108.784 30.7527 108.784 30.65V30.16C108.662 30.3373 108.499 30.5007 108.294 30.65C108.088 30.7993 107.846 30.916 107.566 31C107.295 31.0933 106.978 31.14 106.614 31.14ZM107.272 29.544C107.542 29.544 107.785 29.488 108 29.376C108.224 29.2547 108.396 29.0727 108.518 28.83C108.648 28.578 108.714 28.2653 108.714 27.892V27.696L107.524 27.906C107.085 27.9807 106.763 28.0973 106.558 28.256C106.362 28.4053 106.264 28.5827 106.264 28.788C106.264 28.9467 106.31 29.082 106.404 29.194C106.497 29.306 106.618 29.3947 106.768 29.46C106.917 29.516 107.085 29.544 107.272 29.544ZM116.033 31.14C115.343 31.14 114.731 31.014 114.199 30.762C113.667 30.51 113.243 30.146 112.925 29.67C112.617 29.1847 112.449 28.606 112.421 27.934C112.412 27.7847 112.407 27.598 112.407 27.374C112.407 27.1407 112.412 26.9493 112.421 26.8C112.449 26.1187 112.617 25.54 112.925 25.064C113.233 24.5787 113.653 24.21 114.185 23.958C114.727 23.706 115.343 23.58 116.033 23.58C116.677 23.58 117.228 23.6733 117.685 23.86C118.143 24.0373 118.516 24.2613 118.805 24.532C119.095 24.8027 119.309 25.0827 119.449 25.372C119.599 25.652 119.678 25.8993 119.687 26.114C119.697 26.2073 119.664 26.2913 119.589 26.366C119.515 26.4313 119.431 26.464 119.337 26.464H117.559C117.457 26.464 117.377 26.4407 117.321 26.394C117.265 26.3473 117.214 26.2773 117.167 26.184C117.055 25.8947 116.911 25.6893 116.733 25.568C116.565 25.4467 116.346 25.386 116.075 25.386C115.702 25.386 115.413 25.5073 115.207 25.75C115.011 25.9927 114.904 26.366 114.885 26.87C114.876 27.2433 114.876 27.5747 114.885 27.864C114.904 28.3773 115.011 28.7507 115.207 28.984C115.413 29.2173 115.702 29.334 116.075 29.334C116.365 29.334 116.593 29.2733 116.761 29.152C116.929 29.0307 117.065 28.8253 117.167 28.536C117.214 28.4427 117.265 28.3727 117.321 28.326C117.377 28.2793 117.457 28.256 117.559 28.256H119.337C119.431 28.256 119.515 28.2933 119.589 28.368C119.664 28.4333 119.697 28.5127 119.687 28.606C119.678 28.7647 119.631 28.9513 119.547 29.166C119.463 29.3713 119.333 29.5907 119.155 29.824C118.978 30.0573 118.745 30.2767 118.455 30.482C118.175 30.678 117.835 30.8367 117.433 30.958C117.032 31.0793 116.565 31.14 116.033 31.14ZM124.305 31.14C123.204 31.14 122.326 30.8413 121.673 30.244C121.02 29.6467 120.679 28.76 120.651 27.584C120.651 27.5187 120.651 27.4347 120.651 27.332C120.651 27.2293 120.651 27.15 120.651 27.094C120.679 26.3567 120.842 25.7267 121.141 25.204C121.449 24.672 121.869 24.2707 122.401 24C122.942 23.72 123.572 23.58 124.291 23.58C125.112 23.58 125.789 23.7433 126.321 24.07C126.862 24.3967 127.268 24.84 127.539 25.4C127.81 25.96 127.945 26.5993 127.945 27.318V27.654C127.945 27.7567 127.908 27.8407 127.833 27.906C127.768 27.9713 127.688 28.004 127.595 28.004H123.115C123.115 28.0133 123.115 28.0273 123.115 28.046C123.115 28.0647 123.115 28.0833 123.115 28.102C123.124 28.3727 123.171 28.62 123.255 28.844C123.339 29.068 123.47 29.2453 123.647 29.376C123.824 29.5067 124.039 29.572 124.291 29.572C124.478 29.572 124.632 29.544 124.753 29.488C124.884 29.4227 124.991 29.3527 125.075 29.278C125.159 29.194 125.224 29.124 125.271 29.068C125.355 28.9747 125.42 28.9187 125.467 28.9C125.523 28.872 125.607 28.858 125.719 28.858H127.455C127.548 28.858 127.623 28.886 127.679 28.942C127.744 28.9887 127.772 29.0587 127.763 29.152C127.754 29.3107 127.674 29.502 127.525 29.726C127.376 29.95 127.156 30.174 126.867 30.398C126.587 30.6127 126.232 30.79 125.803 30.93C125.374 31.07 124.874 31.14 124.305 31.14ZM123.115 26.618H125.481V26.59C125.481 26.2913 125.434 26.03 125.341 25.806C125.257 25.582 125.122 25.4093 124.935 25.288C124.758 25.1667 124.543 25.106 124.291 25.106C124.039 25.106 123.824 25.1667 123.647 25.288C123.479 25.4093 123.348 25.582 123.255 25.806C123.162 26.03 123.115 26.2913 123.115 26.59V26.618ZM133.71 31.14C133.187 31.14 132.748 31.0513 132.394 30.874C132.048 30.6967 131.764 30.4727 131.54 30.202V30.65C131.54 30.7527 131.502 30.8367 131.428 30.902C131.362 30.9673 131.283 31 131.19 31H129.608C129.505 31 129.421 30.9673 129.356 30.902C129.29 30.8367 129.258 30.7527 129.258 30.65V21.41C129.258 21.3073 129.29 21.2233 129.356 21.158C129.421 21.0927 129.505 21.06 129.608 21.06H131.316C131.418 21.06 131.502 21.0927 131.568 21.158C131.633 21.2233 131.666 21.3073 131.666 21.41V24.406C131.89 24.1633 132.17 23.9673 132.506 23.818C132.851 23.6593 133.252 23.58 133.71 23.58C134.176 23.58 134.587 23.6593 134.942 23.818C135.306 23.9673 135.614 24.1867 135.866 24.476C136.118 24.7653 136.314 25.1107 136.454 25.512C136.594 25.9133 136.673 26.366 136.692 26.87C136.701 27.0473 136.706 27.2107 136.706 27.36C136.706 27.5 136.701 27.6633 136.692 27.85C136.673 28.3727 136.589 28.8393 136.44 29.25C136.3 29.6513 136.104 29.9967 135.852 30.286C135.6 30.566 135.296 30.7807 134.942 30.93C134.587 31.07 134.176 31.14 133.71 31.14ZM132.954 29.264C133.271 29.264 133.518 29.1987 133.696 29.068C133.873 28.9373 133.999 28.76 134.074 28.536C134.158 28.312 134.209 28.0647 134.228 27.794C134.246 27.5047 134.246 27.2153 134.228 26.926C134.209 26.6553 134.158 26.408 134.074 26.184C133.999 25.96 133.873 25.7827 133.696 25.652C133.518 25.5213 133.271 25.456 132.954 25.456C132.664 25.456 132.426 25.5213 132.24 25.652C132.053 25.7733 131.913 25.9367 131.82 26.142C131.726 26.338 131.675 26.5527 131.666 26.786C131.656 26.9633 131.652 27.136 131.652 27.304C131.652 27.472 131.656 27.6493 131.666 27.836C131.675 28.088 131.722 28.3213 131.806 28.536C131.89 28.7507 132.025 28.928 132.212 29.068C132.398 29.1987 132.646 29.264 132.954 29.264ZM141.534 31.14C140.75 31.14 140.087 31.014 139.546 30.762C139.014 30.51 138.603 30.1507 138.314 29.684C138.034 29.208 137.875 28.6433 137.838 27.99C137.828 27.8033 137.824 27.5933 137.824 27.36C137.824 27.1173 137.828 26.9073 137.838 26.73C137.875 26.0673 138.043 25.5027 138.342 25.036C138.64 24.5693 139.056 24.21 139.588 23.958C140.129 23.706 140.778 23.58 141.534 23.58C142.299 23.58 142.948 23.706 143.48 23.958C144.021 24.21 144.441 24.5693 144.74 25.036C145.038 25.5027 145.206 26.0673 145.244 26.73C145.253 26.9073 145.258 27.1173 145.258 27.36C145.258 27.5933 145.253 27.8033 145.244 27.99C145.206 28.6433 145.043 29.208 144.754 29.684C144.474 30.1507 144.063 30.51 143.522 30.762C142.99 31.014 142.327 31.14 141.534 31.14ZM141.534 29.432C141.954 29.432 142.257 29.306 142.444 29.054C142.64 28.802 142.752 28.424 142.78 27.92C142.789 27.78 142.794 27.5933 142.794 27.36C142.794 27.1267 142.789 26.94 142.78 26.8C142.752 26.3053 142.64 25.932 142.444 25.68C142.257 25.4187 141.954 25.288 141.534 25.288C141.123 25.288 140.82 25.4187 140.624 25.68C140.428 25.932 140.32 26.3053 140.302 26.8C140.292 26.94 140.288 27.1267 140.288 27.36C140.288 27.5933 140.292 27.78 140.302 27.92C140.32 28.424 140.428 28.802 140.624 29.054C140.82 29.306 141.123 29.432 141.534 29.432ZM150.079 31.14C149.295 31.14 148.632 31.014 148.091 30.762C147.559 30.51 147.148 30.1507 146.859 29.684C146.579 29.208 146.42 28.6433 146.383 27.99C146.373 27.8033 146.369 27.5933 146.369 27.36C146.369 27.1173 146.373 26.9073 146.383 26.73C146.42 26.0673 146.588 25.5027 146.887 25.036C147.185 24.5693 147.601 24.21 148.133 23.958C148.674 23.706 149.323 23.58 150.079 23.58C150.844 23.58 151.493 23.706 152.025 23.958C152.566 24.21 152.986 24.5693 153.285 25.036C153.583 25.5027 153.751 26.0673 153.789 26.73C153.798 26.9073 153.803 27.1173 153.803 27.36C153.803 27.5933 153.798 27.8033 153.789 27.99C153.751 28.6433 153.588 29.208 153.299 29.684C153.019 30.1507 152.608 30.51 152.067 30.762C151.535 31.014 150.872 31.14 150.079 31.14ZM150.079 29.432C150.499 29.432 150.802 29.306 150.989 29.054C151.185 28.802 151.297 28.424 151.325 27.92C151.334 27.78 151.339 27.5933 151.339 27.36C151.339 27.1267 151.334 26.94 151.325 26.8C151.297 26.3053 151.185 25.932 150.989 25.68C150.802 25.4187 150.499 25.288 150.079 25.288C149.668 25.288 149.365 25.4187 149.169 25.68C148.973 25.932 148.865 26.3053 148.847 26.8C148.837 26.94 148.833 27.1267 148.833 27.36C148.833 27.5933 148.837 27.78 148.847 27.92C148.865 28.424 148.973 28.802 149.169 29.054C149.365 29.306 149.668 29.432 150.079 29.432ZM155.53 31C155.427 31 155.343 30.9673 155.278 30.902C155.212 30.8367 155.18 30.7527 155.18 30.65V21.41C155.18 21.3073 155.212 21.2233 155.278 21.158C155.343 21.0927 155.427 21.06 155.53 21.06H157.154C157.247 21.06 157.326 21.0927 157.392 21.158C157.466 21.2233 157.504 21.3073 157.504 21.41V26.1L159.45 23.958C159.506 23.8927 159.566 23.8367 159.632 23.79C159.697 23.7433 159.79 23.72 159.912 23.72H161.788C161.872 23.72 161.942 23.7527 161.998 23.818C162.063 23.874 162.096 23.944 162.096 24.028C162.096 24.0653 162.086 24.1073 162.068 24.154C162.049 24.2007 162.021 24.238 161.984 24.266L159.464 26.982L162.334 30.468C162.408 30.5427 162.446 30.6173 162.446 30.692C162.446 30.776 162.413 30.8507 162.348 30.916C162.292 30.972 162.217 31 162.124 31H160.206C160.066 31 159.963 30.9767 159.898 30.93C159.832 30.874 159.772 30.818 159.716 30.762L157.504 28.102V30.65C157.504 30.7527 157.466 30.8367 157.392 30.902C157.326 30.9673 157.247 31 157.154 31H155.53Z" fill="white"/>
</svg>
