<svg width="40" height="40" viewBox="0 0 40 40" fill="none" xmlns="http://www.w3.org/2000/svg">
<rect width="40" height="40" rx="20" fill="#EAEDEE"/>
<g clip-path="url(#clip0_16693_16801)">
<path d="M13 10C13 9.45 12.55 9 12 9C11.45 9 11 9.45 11 10V14H9V24C9 25.3 9.84 26.4 11 26.82V31H13V26.82C14.16 26.4 15 25.3 15 24V14H13V10ZM12 25C11.45 25 11 24.55 11 24V22H13V24C13 24.55 12.55 25 12 25ZM11 20V16H13V20H11ZM21 10C21 9.45 20.55 9 20 9C19.45 9 19 9.45 19 10V14H17V24C17 25.3 17.84 26.4 19 26.82V31H21V26.82C22.16 26.4 23 25.3 23 24V14H21V10ZM20 25C19.45 25 19 24.55 19 24V22H21V24C21 24.55 20.55 25 20 25ZM19 20V16H21V20H19ZM29 14V10C29 9.45 28.55 9 28 9C27.45 9 27 9.45 27 10V14H25V24C25 25.3 25.84 26.4 27 26.82V31H29V26.82C30.16 26.4 31 25.3 31 24V14H29ZM28 25C27.45 25 27 24.55 27 24V22H29V24C29 24.55 28.55 25 28 25ZM27 20V16H29V20H27Z" fill="#828282"/>
</g>
<defs>
<clipPath id="clip0_16693_16801">
<rect width="24" height="24" fill="white" transform="translate(8 8)"/>
</clipPath>
</defs>
</svg>
