<svg width="40" height="40" viewBox="0 0 40 40" fill="none" xmlns="http://www.w3.org/2000/svg">
<rect width="40" height="40" rx="20" fill="#EAEDEE"/>
<path d="M18 15V11M23 15V13M13 15V13M9 18C9 24.0752 12 29 18 29C24 29 27 24.0752 27 18H9ZM26.0952 23.3115C26.5901 22.0195 26.882 20.5687 26.9708 19.0255C27.1434 19.0087 27.3201 19 27.5 19C29.433 19 31 20.0073 31 21.25C31 22.4927 29.433 23.5 27.5 23.5C27.0003 23.5 26.5252 23.4327 26.0952 23.3115Z" stroke="#828282" stroke-width="2" stroke-linecap="round" stroke-linejoin="round"/>
</svg>
