<svg width="40" height="40" viewBox="0 0 40 40" fill="none" xmlns="http://www.w3.org/2000/svg">
<rect width="40" height="40" rx="20" fill="#95A4AA"/>
<g clip-path="url(#clip0_14798_16874)">
<path d="M26 28.5H26.5V28V19.5H27.5V28C27.5 28.8239 26.8239 29.5 26 29.5H12C11.1761 29.5 10.5 28.8239 10.5 28V14C10.5 13.1761 11.1761 12.5 12 12.5H20.5V13.5H12H11.5V14V28V28.5H12H26ZM14.5233 25.5L16.2625 23.2676L17.8254 25.1495L18.1165 25.5H14.5233ZM20.9534 22.1135L23.4987 25.5H18.3227L18.6049 25.1367L20.9534 22.1135ZM27.5 12V12.5H28H30.5V13.5H28H27.5V14V16.4922C27.3481 16.4927 27.1754 16.4933 27.0025 16.4938C26.8277 16.4942 26.6531 16.4945 26.5 16.4944V14V13.5H26H23.5022C23.5027 13.3487 23.5033 13.1769 23.5037 13.005C23.5042 12.83 23.5045 12.6545 23.5044 12.5H26H26.5V12V9.5H27.5V12Z" stroke="white"/>
</g>
<defs>
<clipPath id="clip0_14798_16874">
<rect width="24" height="24" fill="white" transform="translate(8 8)"/>
</clipPath>
</defs>
</svg>
