<svg width="16" height="16" viewBox="0 0 16 16" fill="none" xmlns="http://www.w3.org/2000/svg">
<g clip-path="url(#clip0_16693_15655)">
<path d="M13.9993 2H1.99935C1.33268 2 0.666016 2.66667 0.666016 3.33333V12.6667C0.666016 13.4 1.26602 14 1.99935 14H13.9993C14.666 14 15.3327 13.3333 15.3327 12.6667V3.33333C15.3327 2.66667 14.666 2 13.9993 2ZM13.9993 12.6133C13.986 12.6333 13.9593 12.6533 13.946 12.6667H1.99935V3.38667L2.05268 3.33333H13.9393C13.9593 3.34667 13.9793 3.37333 13.9927 3.38667V12.6133H13.9993ZM7.33268 10.34L5.66602 8.33333L3.33268 11.3333H12.666L9.66601 7.33333L7.33268 10.34Z" fill="#323232"/>
</g>
<defs>
<clipPath id="clip0_16693_15655">
<rect width="16" height="16" fill="white"/>
</clipPath>
</defs>
</svg>
