<svg width="16" height="12" viewBox="0 0 16 12" fill="none" xmlns="http://www.w3.org/2000/svg">
<path d="M13.9993 0H1.99935C1.33268 0 0.666016 0.666667 0.666016 1.33333V10.6667C0.666016 11.4 1.26602 12 1.99935 12H13.9993C14.666 12 15.3327 11.3333 15.3327 10.6667V1.33333C15.3327 0.666667 14.666 0 13.9993 0ZM13.9993 10.6133C13.986 10.6333 13.9593 10.6533 13.946 10.6667H1.99935V1.38667L2.05268 1.33333H13.9393C13.9593 1.34667 13.9793 1.37333 13.9927 1.38667V10.6133H13.9993ZM7.33268 8.34L5.66602 6.33333L3.33268 9.33333H12.666L9.66601 5.33333L7.33268 8.34Z" fill="#323232"/>
</svg>
